<svg width="311" height="311" viewBox="0 0 311 311" fill="none" xmlns="http://www.w3.org/2000/svg">
<g clip-path="url(#clip0_143_2)">
<path d="M171.555 155.378L212.944 196.767C215.979 199.802 217.497 203.665 217.497 208.356C217.497 213.046 215.979 216.909 212.944 219.944C209.909 222.98 206.046 224.497 201.355 224.497C196.665 224.497 192.802 222.98 189.767 219.944L143.411 173.589C141.755 171.933 140.514 170.074 139.686 168.01C138.858 165.946 138.444 163.805 138.444 161.586V95.7778C138.444 91.087 140.034 87.1578 143.212 83.9902C146.391 80.8226 150.32 79.2333 155 79.2222C159.68 79.2112 163.614 80.8005 166.804 83.9902C169.994 87.1799 171.577 91.1091 171.555 95.7778V155.378ZM155 311C134.305 311 114.924 307.137 96.8568 299.411C78.7892 291.685 62.9897 281.062 49.4583 267.542C35.9269 254.021 25.3038 238.222 17.5889 220.143C9.87402 202.064 6.01106 182.683 6.00002 162C5.98899 141.317 9.85195 121.936 17.5889 103.857C25.3259 85.7782 35.949 69.9787 49.4583 56.4583C62.9676 42.938 78.7671 32.3148 96.8568 24.5889C114.947 16.863 134.328 13 155 13C158.035 13 160.866 13.0717 163.493 13.2152C166.12 13.3587 168.945 13.7009 171.969 14.2417C176.66 14.2417 180.595 15.831 183.773 19.0097C186.952 22.1883 188.536 26.1175 188.525 30.7972C188.514 35.4769 186.924 39.4116 183.757 42.6013C180.589 45.791 176.66 47.3748 171.969 47.3528C168.934 47.3528 166.103 47.1431 163.476 46.7237C160.85 46.3043 158.024 46.1001 155 46.1111C122.441 46.1111 94.9861 57.2861 72.6361 79.6361C50.2861 101.986 39.1111 129.441 39.1111 162C39.1111 194.559 50.2861 222.014 72.6361 244.364C94.9861 266.714 122.441 277.889 155 277.889C187.559 277.889 215.014 266.714 237.364 244.364C259.714 222.014 270.889 194.559 270.889 162C270.889 157.309 272.478 153.38 275.657 150.212C278.835 147.045 282.765 145.455 287.444 145.444C292.124 145.433 296.059 147.023 299.248 150.212C302.438 153.402 304.022 157.331 304 162C304 182.694 300.137 202.081 292.411 220.16C284.685 238.238 274.062 254.032 260.541 267.542C247.021 281.051 231.222 291.674 213.143 299.411C195.064 307.148 175.683 311.011 155 311Z" fill="#303030"/>
<path d="M211.65 103.75L187.15 92.85V85.5L211.65 74.6V82.65L193.75 89.15L211.65 95.65V103.75ZM217.225 104V98.5C220.058 96.7333 222.475 95.0833 224.475 93.55C226.475 92.0167 228.091 90.5667 229.325 89.2C230.591 87.8333 231.525 86.5333 232.125 85.3C232.725 84.0667 233.025 82.8667 233.025 81.7C233.025 80.4333 232.641 79.3833 231.875 78.55C231.141 77.6833 230.041 77.25 228.575 77.25C227.008 77.25 225.791 77.8333 224.925 79C224.058 80.1333 223.591 81.8 223.525 84L216.175 81.75C216.241 79.2833 216.825 77.2167 217.925 75.55C219.058 73.8833 220.591 72.6333 222.525 71.8C224.458 70.9333 226.658 70.5 229.125 70.5C231.291 70.5 233.158 70.8167 234.725 71.45C236.325 72.05 237.625 72.8667 238.625 73.9C239.625 74.9 240.358 76.0333 240.825 77.3C241.325 78.5333 241.575 79.8 241.575 81.1C241.575 83.2333 241.025 85.2333 239.925 87.1C238.825 88.9333 237.225 90.7167 235.125 92.45C233.058 94.15 230.541 95.8667 227.575 97.6V97.65C228.141 97.6167 228.808 97.5833 229.575 97.55C230.341 97.5167 231.141 97.5 231.975 97.5C232.808 97.4667 233.558 97.45 234.225 97.45H241.975V104H217.225ZM261.625 104V96.75H245.525V91.35C245.825 90.8167 246.208 90.1667 246.675 89.4C247.175 88.6333 247.758 87.75 248.425 86.75L259.175 71H269.225V90.85H274.275V96.75H269.225V104H261.625ZM252.425 90.85H261.725V80.85C261.725 80.1833 261.742 79.5 261.775 78.8C261.808 78.0667 261.842 77.3333 261.875 76.6H261.775C261.442 77.3 261.042 78.0333 260.575 78.8C260.142 79.5333 259.725 80.2 259.325 80.8L253.475 89.35C253.308 89.6167 253.142 89.8667 252.975 90.1C252.808 90.3333 252.625 90.5833 252.425 90.85ZM278.749 104V68.4H287.249V83.55C287.983 81.8833 289.033 80.6333 290.399 79.8C291.766 78.9333 293.349 78.5 295.149 78.5C296.883 78.5 298.383 78.8333 299.649 79.5C300.949 80.1667 301.966 81.15 302.699 82.45C303.433 83.75 303.799 85.3833 303.799 87.35V104H295.299V89.7C295.299 87.9 294.966 86.6667 294.299 86C293.666 85.3 292.816 84.95 291.749 84.95C290.949 84.95 290.199 85.15 289.499 85.55C288.799 85.95 288.249 86.5833 287.849 87.45C287.449 88.3167 287.249 89.45 287.249 90.85V104H278.749Z" fill="#303030"/>
</g>
<defs>
<clipPath id="clip0_143_2">
<rect width="311" height="311" fill="white"/>
</clipPath>
</defs>
</svg>
