<svg width="311" height="311" viewBox="0 0 311 311" fill="none" xmlns="http://www.w3.org/2000/svg">
<g clip-path="url(#clip0_143_2)">
<path d="M171.555 155.378L212.944 196.767C215.979 199.802 217.497 203.665 217.497 208.356C217.497 213.046 215.979 216.909 212.944 219.944C209.909 222.98 206.046 224.497 201.355 224.497C196.665 224.497 192.802 222.98 189.767 219.944L143.411 173.589C141.755 171.933 140.514 170.074 139.686 168.01C138.858 165.946 138.444 163.805 138.444 161.586V95.7778C138.444 91.087 140.034 87.1578 143.212 83.9902C146.391 80.8226 150.32 79.2333 155 79.2222C159.68 79.2112 163.614 80.8005 166.804 83.9902C169.994 87.1799 171.577 91.1091 171.555 95.7778V155.378ZM155 311C134.305 311 114.924 307.137 96.8568 299.411C78.7892 291.685 62.9897 281.062 49.4583 267.542C35.9269 254.021 25.3038 238.222 17.5889 220.143C9.87402 202.064 6.01106 182.683 6.00002 162C5.98899 141.317 9.85195 121.936 17.5889 103.857C25.3259 85.7782 35.949 69.9787 49.4583 56.4583C62.9676 42.938 78.7671 32.3148 96.8568 24.5889C114.947 16.863 134.328 13 155 13C158.035 13 160.866 13.0717 163.493 13.2152C166.12 13.3587 168.945 13.7009 171.969 14.2417C176.66 14.2417 180.595 15.831 183.773 19.0097C186.952 22.1883 188.536 26.1175 188.525 30.7972C188.514 35.4769 186.924 39.4116 183.757 42.6013C180.589 45.791 176.66 47.3748 171.969 47.3528C168.934 47.3528 166.103 47.1431 163.476 46.7237C160.85 46.3043 158.024 46.1001 155 46.1111C122.441 46.1111 94.9861 57.2861 72.6361 79.6361C50.2861 101.986 39.1111 129.441 39.1111 162C39.1111 194.559 50.2861 222.014 72.6361 244.364C94.9861 266.714 122.441 277.889 155 277.889C187.559 277.889 215.014 266.714 237.364 244.364C259.714 222.014 270.889 194.559 270.889 162C270.889 157.309 272.478 153.38 275.657 150.212C278.835 147.045 282.765 145.455 287.444 145.444C292.124 145.433 296.059 147.023 299.248 150.212C302.438 153.402 304.022 157.331 304 162C304 182.694 300.137 202.081 292.411 220.16C284.685 238.238 274.062 254.032 260.541 267.542C247.021 281.051 231.222 291.674 213.143 299.411C195.064 307.148 175.683 311.011 155 311Z" fill="#303030"/>
<path d="M218.088 100.508L189.904 88.7598V82.8125L218.088 71.0352V78.7695L200.686 85.7715L218.088 92.7441V100.508ZM247.619 101.914V110H221.574V103.232C229.289 90.6152 233.869 82.8125 235.314 79.8242C236.779 76.8164 237.512 74.4727 237.512 72.793C237.512 71.5039 237.287 70.5469 236.838 69.9219C236.408 69.2773 235.744 68.9551 234.846 68.9551C233.947 68.9551 233.273 69.3066 232.824 70.0098C232.395 70.7129 232.18 72.1094 232.18 74.1992V78.7109H221.574V76.9824C221.574 74.3262 221.711 72.2363 221.984 70.7129C222.258 69.1699 222.932 67.6562 224.006 66.1719C225.08 64.6875 226.477 63.5645 228.195 62.8027C229.914 62.041 231.975 61.6602 234.377 61.6602C239.084 61.6602 242.639 62.832 245.041 65.1758C247.463 67.5 248.674 70.4492 248.674 74.0234C248.674 76.7383 247.99 79.6094 246.623 82.6367C245.275 85.6641 241.281 92.0898 234.641 101.914H247.619ZM275.129 62.5684V93.5645H278.498V101.65H275.129V110H263.293V101.65H249.23V93.5645L259.455 62.5684H275.129ZM263.293 93.5645V73.3789L258.078 93.5645H263.293ZM292.824 62.5684V73.2324C293.84 72.2949 294.934 71.5918 296.105 71.123C297.297 70.6543 298.566 70.4199 299.914 70.4199C301.984 70.4199 303.742 70.9473 305.188 72.002C306.652 73.0566 307.541 74.2773 307.854 75.6641C308.186 77.0312 308.352 79.541 308.352 83.1934V110H296.516V82.6367C296.516 80.3711 296.398 78.916 296.164 78.2715C295.949 77.627 295.451 77.3047 294.67 77.3047C293.947 77.3047 293.459 77.6367 293.205 78.3008C292.951 78.9648 292.824 80.2832 292.824 82.2559V110H280.988V62.5684H292.824Z" fill="#303030"/>
</g>
<defs>
<clipPath id="clip0_143_2">
<rect width="311" height="311" fill="white"/>
</clipPath>
</defs>
</svg>
