<svg width="372" height="372" viewBox="0 0 372 372" fill="none" xmlns="http://www.w3.org/2000/svg">
<path d="M186 179.8L224.75 218.55C227.592 221.392 229.013 225.008 229.013 229.4C229.013 233.792 227.592 237.408 224.75 240.25C221.908 243.092 218.292 244.513 213.9 244.513C209.508 244.513 205.892 243.092 203.05 240.25L159.65 196.85C158.1 195.3 156.938 193.559 156.163 191.627C155.388 189.694 155 187.69 155 185.613V124C155 119.608 156.488 115.93 159.464 112.964C162.44 109.998 166.119 108.51 170.5 108.5C174.881 108.49 178.565 109.978 181.552 112.964C184.538 115.95 186.021 119.629 186 124V179.8ZM170.5 325.5C151.125 325.5 132.98 321.883 116.064 314.65C99.1483 307.417 84.3562 297.471 71.6875 284.813C59.0189 272.154 49.073 257.362 41.85 240.436C34.627 223.51 31.0104 205.365 31 186C30.9897 166.635 34.6064 148.49 41.85 131.564C49.0937 114.638 59.0395 99.8458 71.6875 87.1875C84.3355 74.5292 99.1277 64.5833 116.064 57.35C133 50.1167 151.146 46.5 170.5 46.5C173.342 46.5 175.992 46.5672 178.452 46.7015C180.911 46.8358 183.556 47.1562 186.388 47.6625C190.779 47.6625 194.463 49.1505 197.439 52.1265C200.415 55.1025 201.898 58.7812 201.888 63.1625C201.877 67.5438 200.389 71.2277 197.424 74.214C194.458 77.2003 190.779 78.6832 186.388 78.6625C183.546 78.6625 180.895 78.4662 178.436 78.0735C175.977 77.6808 173.331 77.4897 170.5 77.5C140.017 77.5 114.313 87.9625 93.3875 108.887C72.4625 129.812 62 155.517 62 186C62 216.483 72.4625 242.188 93.3875 263.113C114.313 284.038 140.017 294.5 170.5 294.5C200.983 294.5 226.688 284.038 247.613 263.113C268.538 242.188 279 216.483 279 186C279 181.608 280.488 177.93 283.464 174.964C286.44 171.998 290.119 170.51 294.5 170.5C298.881 170.49 302.565 171.978 305.552 174.964C308.538 177.95 310.021 181.629 310 186C310 205.375 306.383 223.526 299.15 240.452C291.917 257.378 281.971 272.165 269.313 284.813C256.654 297.461 241.862 307.406 224.936 314.65C208.01 321.894 189.865 325.51 170.5 325.5Z" fill="#303030"/>
<path d="M230.18 135.7L200.78 122.62V113.8L230.18 100.72V110.38L208.7 118.18L230.18 125.98V135.7ZM236.87 136V129.4C240.27 127.28 243.17 125.3 245.57 123.46C247.97 121.62 249.91 119.88 251.39 118.24C252.91 116.6 254.03 115.04 254.75 113.56C255.47 112.08 255.83 110.64 255.83 109.24C255.83 107.72 255.37 106.46 254.45 105.46C253.57 104.42 252.25 103.9 250.49 103.9C248.61 103.9 247.15 104.6 246.11 106C245.07 107.36 244.51 109.36 244.43 112L235.61 109.3C235.69 106.34 236.39 103.86 237.71 101.86C239.07 99.86 240.91 98.36 243.23 97.36C245.55 96.32 248.19 95.8 251.15 95.8C253.75 95.8 255.99 96.18 257.87 96.94C259.79 97.66 261.35 98.64 262.55 99.88C263.75 101.08 264.63 102.44 265.19 103.96C265.79 105.44 266.09 106.96 266.09 108.52C266.09 111.08 265.43 113.48 264.11 115.72C262.79 117.92 260.87 120.06 258.35 122.14C255.87 124.18 252.85 126.24 249.29 128.32V128.38C249.97 128.34 250.77 128.3 251.69 128.26C252.61 128.22 253.57 128.2 254.57 128.2C255.57 128.16 256.47 128.14 257.27 128.14H266.57V136H236.87ZM290.15 136V127.3H270.83V120.82C271.19 120.18 271.65 119.4 272.21 118.48C272.81 117.56 273.51 116.5 274.31 115.3L287.21 96.4H299.27V120.22H305.33V127.3H299.27V136H290.15ZM279.11 120.22H290.27V108.22C290.27 107.42 290.29 106.6 290.33 105.76C290.37 104.88 290.41 104 290.45 103.12H290.33C289.93 103.96 289.45 104.84 288.89 105.76C288.37 106.64 287.87 107.44 287.39 108.16L280.37 118.42C280.17 118.74 279.97 119.04 279.77 119.32C279.57 119.6 279.35 119.9 279.11 120.22ZM310.699 136V93.28H320.899V111.46C321.779 109.46 323.039 107.96 324.679 106.96C326.319 105.92 328.219 105.4 330.379 105.4C332.459 105.4 334.259 105.8 335.779 106.6C337.339 107.4 338.559 108.58 339.439 110.14C340.319 111.7 340.759 113.66 340.759 116.02V136H330.559V118.84C330.559 116.68 330.159 115.2 329.359 114.4C328.599 113.56 327.579 113.14 326.299 113.14C325.339 113.14 324.439 113.38 323.599 113.86C322.759 114.34 322.099 115.1 321.619 116.14C321.139 117.18 320.899 118.54 320.899 120.22V136H310.699Z" fill="#303030"/>
</svg>
