<svg width="308" height="308" viewBox="0 0 308 308" fill="none" xmlns="http://www.w3.org/2000/svg">
<g clip-path="url(#clip0_389_910)">
<path d="M26.3994 88.6947C12.3273 144.414 12.7827 223.017 15.5379 268.854C15.8354 273.904 17.8937 278.691 21.355 282.381C24.8163 286.071 29.4616 288.431 34.4829 289.051C60.2134 292.398 109.83 298 153.504 298C197.154 298 246.748 292.398 272.501 289.051C277.523 288.431 282.168 286.071 285.629 282.381C289.091 278.691 291.149 273.904 291.446 268.854C294.224 223.017 294.68 144.414 280.608 88.6947C279.467 84.115 276.781 80.0694 273.002 77.2412C251.735 61.3019 207.834 32.8845 160.653 15.8523C156.017 14.1833 150.944 14.1833 146.308 15.8523C99.1735 32.8845 55.2494 61.3019 33.9819 77.2412C30.2036 80.0694 27.5172 84.115 26.3766 88.6947H26.3994Z" stroke="#E8A844" stroke-width="30" stroke-linecap="round" stroke-linejoin="round"/>
<path d="M153.526 235.382C153.526 229.343 151.127 223.551 146.857 219.281C142.587 215.01 136.795 212.611 130.756 212.611H96.6004C90.5614 212.611 84.7696 215.01 80.4994 219.281C76.2291 223.551 73.8301 229.343 73.8301 235.382V269.537C73.8301 275.576 76.2291 281.368 80.4994 285.638C84.7696 289.909 90.5614 292.308 96.6004 292.308H130.756C136.795 292.308 142.587 289.909 146.857 285.638C151.127 281.368 153.526 275.576 153.526 269.537M153.526 235.382V269.537M153.526 235.382C153.526 229.343 155.925 223.551 160.196 219.281C164.466 215.01 170.258 212.611 176.297 212.611H210.452C216.491 212.611 222.283 215.01 226.553 219.281C230.824 223.551 233.223 229.343 233.223 235.382V269.537C233.223 275.576 230.824 281.368 226.553 285.638C222.283 289.909 216.491 292.308 210.452 292.308H176.297C170.258 292.308 164.466 289.909 160.196 285.638C155.925 281.368 153.526 275.576 153.526 269.537M113.678 189.841V155.685C113.678 149.646 116.077 143.855 120.347 139.584C124.618 135.314 130.409 132.915 136.449 132.915H170.604C176.643 132.915 182.435 135.314 186.705 139.584C190.975 143.855 193.374 149.646 193.374 155.685V189.841C193.374 195.88 190.975 201.672 186.705 205.942C182.435 210.212 176.643 212.611 170.604 212.611H136.449C130.409 212.611 124.618 210.212 120.347 205.942C116.077 201.672 113.678 195.88 113.678 189.841Z" stroke="#E8A844" stroke-width="30" stroke-linecap="round" stroke-linejoin="round"/>
</g>
<defs>
<clipPath id="clip0_389_910">
<rect width="308" height="308" fill="white"/>
</clipPath>
</defs>
</svg>
