<svg width="304" height="304" viewBox="0 0 304 304" fill="none" xmlns="http://www.w3.org/2000/svg">
<path fill-rule="evenodd" clip-rule="evenodd" d="M177.244 4.96182C170.083 1.69026 162.335 0 154.5 0C146.665 0 138.918 1.69026 131.756 4.96182C82.5008 27.469 45.2454 56.9884 25.9499 74.0569C14.176 84.4828 7.79731 99.328 7.01327 114.768C5.71206 140.198 5.04075 165.657 5 191.122C5 220.333 6.00331 248.252 6.88702 267.126C7.29195 276.267 11.0168 284.918 17.3237 291.364C23.6305 297.811 32.0592 301.583 40.9398 301.934C63.398 302.864 101.697 304 154.5 304C207.303 304 245.595 302.864 268.06 301.934C276.941 301.583 285.369 297.811 291.676 291.364C297.983 284.918 301.708 276.267 302.113 267.126C302.997 248.252 304 220.333 304 191.122C304 160.542 302.897 132.617 301.993 114.775C301.203 99.3348 294.817 84.4896 283.05 74.0706C263.761 56.9952 226.499 27.469 177.244 4.96182ZM154.5 126.131C108.819 126.131 81.7965 128.854 66.7668 131.296C59.6971 132.446 54.8068 137.795 54.036 145.581C52.7736 158.428 51.5111 179.341 51.5111 211.645C51.5111 238.12 52.355 258.507 53.3716 273.4C53.6905 278.161 57.511 282.02 62.4612 282.17C84.8994 282.854 115.75 283.477 154.5 283.477C193.244 283.477 224.107 282.861 246.545 282.17C251.489 282.013 255.316 278.161 255.635 273.4C256.645 258.5 257.489 238.113 257.489 211.645C257.489 179.341 256.226 158.421 254.964 145.581C254.2 137.795 249.303 132.446 242.233 131.296C227.204 128.854 200.181 126.131 154.5 126.131ZM121.696 155.589C122.095 149.46 126.181 144.89 132.122 144.233C136.985 143.686 144.161 143.234 154.5 143.234C164.839 143.234 172.015 143.693 176.878 144.233C182.819 144.89 186.912 149.46 187.31 155.589C187.543 159.249 187.722 164.147 187.722 170.599C187.722 177.05 187.543 181.948 187.304 185.608C186.905 191.738 182.819 196.307 176.878 196.964C172.015 197.511 164.839 197.963 154.5 197.963C144.161 197.963 136.985 197.505 132.122 196.964C126.181 196.307 122.088 191.738 121.69 185.608C121.391 180.611 121.253 175.605 121.278 170.599C121.278 164.147 121.457 159.249 121.696 155.589ZM92.2548 212.644C86.3147 213.301 82.2217 217.871 81.8231 224C81.5241 228.997 81.3867 234.003 81.4111 239.01C81.4111 245.461 81.5905 250.359 81.8297 254.019C82.2284 260.149 86.3147 264.718 92.2548 265.375C97.1186 265.922 104.295 266.374 114.633 266.374C124.972 266.374 132.148 265.916 137.012 265.375C142.952 264.718 147.045 260.149 147.444 254.019C147.676 250.359 147.856 245.461 147.856 239.01C147.856 232.558 147.676 227.66 147.437 224C147.038 217.871 142.952 213.301 137.012 212.644C132.148 212.097 124.972 211.645 114.633 211.645C104.295 211.645 97.1186 212.104 92.2548 212.644ZM171.988 212.644C166.048 213.301 161.955 217.871 161.556 224C161.257 228.997 161.12 234.003 161.144 239.01C161.144 245.461 161.324 250.359 161.563 254.019C161.962 260.149 166.048 264.718 171.988 265.375C176.852 265.922 184.028 266.374 194.367 266.374C204.705 266.374 211.881 265.916 216.745 265.375C222.685 264.718 226.778 260.149 227.177 254.019C227.409 250.359 227.589 245.461 227.589 239.01C227.589 232.558 227.409 227.66 227.17 224C226.772 217.871 222.685 213.301 216.745 212.644C211.881 212.097 204.705 211.645 194.367 211.645C184.028 211.645 176.852 212.104 171.988 212.644Z" fill="#E8A844"/>
</svg>
