<svg width="24" height="24" viewBox="0 0 24 24" fill="none" xmlns="http://www.w3.org/2000/svg">
<path d="M11.8754 20C11.9421 20 12.0087 19.9833 12.0754 19.95C12.1421 19.9167 12.1921 19.8833 12.2254 19.85L20.4254 11.65C20.6254 11.45 20.7714 11.225 20.8634 10.975C20.9554 10.725 21.0011 10.475 21.0004 10.225C21.0004 9.95833 20.9547 9.704 20.8634 9.462C20.7721 9.22 20.6261 9.00767 20.4254 8.825L16.1754 4.575C15.9921 4.375 15.7794 4.22933 15.5374 4.138C15.2954 4.04667 15.0417 4.00067 14.7764 4C14.5264 4 14.2764 4.046 14.0264 4.138C13.7764 4.23 13.5514 4.37567 13.3514 4.575L13.0764 4.85L14.9264 6.725C15.1764 6.95833 15.3597 7.225 15.4764 7.525C15.5931 7.825 15.6514 8.14167 15.6514 8.475C15.6514 9.175 15.4141 9.76267 14.9394 10.238C14.4647 10.7133 13.8771 10.9507 13.1764 10.95C12.8431 10.95 12.5224 10.8917 12.2144 10.775C11.9064 10.6583 11.6354 10.4833 11.4014 10.25L9.52539 8.4L5.15039 12.775C5.10039 12.825 5.06306 12.8793 5.03839 12.938C5.01373 12.9967 5.00106 13.059 5.00039 13.125C5.00039 13.2583 5.05039 13.3793 5.15039 13.488C5.25039 13.5967 5.36706 13.6507 5.50039 13.65C5.56706 13.65 5.63373 13.6333 5.70039 13.6C5.76706 13.5667 5.81706 13.5333 5.85039 13.5L8.55039 10.8C8.73373 10.6167 8.96306 10.5207 9.23839 10.512C9.51373 10.5033 9.75106 10.5993 9.95039 10.8C10.1337 10.9833 10.2254 11.2167 10.2254 11.5C10.2254 11.7833 10.1337 12.0167 9.95039 12.2L7.27539 14.9C7.22539 14.95 7.18806 15.0043 7.16339 15.063C7.13873 15.1217 7.12606 15.184 7.12539 15.25C7.12539 15.3833 7.17539 15.5 7.27539 15.6C7.37539 15.7 7.49206 15.75 7.62539 15.75C7.69206 15.75 7.75873 15.7333 7.82539 15.7C7.89206 15.6667 7.94206 15.6333 7.97539 15.6L10.6754 12.925C10.8587 12.7417 11.0881 12.6457 11.3634 12.637C11.6387 12.6283 11.8761 12.7243 12.0754 12.925C12.2587 13.1083 12.3504 13.3417 12.3504 13.625C12.3504 13.9083 12.2587 14.1417 12.0754 14.325L9.40039 17.025C9.35039 17.0583 9.31306 17.1083 9.28839 17.175C9.26373 17.2417 9.25106 17.3083 9.25039 17.375C9.25039 17.5083 9.30039 17.625 9.40039 17.725C9.50039 17.825 9.61706 17.875 9.75039 17.875C9.81706 17.875 9.87973 17.8623 9.93839 17.837C9.99706 17.8117 10.0511 17.7743 10.1004 17.725L12.8004 15.05C12.9837 14.8667 13.2131 14.7707 13.4884 14.762C13.7637 14.7533 14.0011 14.8493 14.2004 15.05C14.3837 15.2333 14.4754 15.4667 14.4754 15.75C14.4754 16.0333 14.3837 16.2667 14.2004 16.45L11.5004 19.15C11.4504 19.2 11.4131 19.2543 11.3884 19.313C11.3637 19.3717 11.3511 19.434 11.3504 19.5C11.3504 19.6333 11.4047 19.75 11.5134 19.85C11.6221 19.95 11.7427 20 11.8754 20ZM11.8504 22C11.2337 22 10.6881 21.796 10.2134 21.388C9.73873 20.98 9.45939 20.4673 9.37539 19.85C8.80873 19.7667 8.33373 19.5333 7.95039 19.15C7.56706 18.7667 7.33373 18.2917 7.25039 17.725C6.68373 17.6417 6.21306 17.4043 5.83839 17.013C5.46373 16.6217 5.23439 16.1507 5.15039 15.6C4.51706 15.5167 4.00039 15.2417 3.60039 14.775C3.20039 14.3083 3.00039 13.7583 3.00039 13.125C3.00039 12.7917 3.06306 12.471 3.18839 12.163C3.31373 11.855 3.49273 11.584 3.72539 11.35L8.10039 6.975C8.48373 6.59167 8.95473 6.4 9.51339 6.4C10.0721 6.4 10.5427 6.59167 10.9254 6.975L12.8004 8.85C12.8337 8.9 12.8837 8.93767 12.9504 8.963C13.0171 8.98833 13.0837 9.00067 13.1504 9C13.3004 9 13.4254 8.95433 13.5254 8.863C13.6254 8.77167 13.6754 8.65067 13.6754 8.5C13.6754 8.43333 13.6627 8.36667 13.6374 8.3C13.6121 8.23333 13.5747 8.18333 13.5254 8.15L9.95039 4.575C9.76706 4.375 9.55473 4.22933 9.31339 4.138C9.07206 4.04667 8.81773 4.00067 8.55039 4C8.30039 4 8.05039 4.046 7.80039 4.138C7.55039 4.23 7.32539 4.37567 7.12539 4.575L3.60039 8.125C3.36706 8.35833 3.20039 8.63333 3.10039 8.95C3.00039 9.26667 2.97539 9.58333 3.02539 9.9C3.07539 10.1833 3.01706 10.4333 2.85039 10.65C2.68373 10.8667 2.45873 10.9917 2.17539 11.025C1.89206 11.0583 1.64206 10.9957 1.42539 10.837C1.20873 10.6783 1.08373 10.4577 1.05039 10.175C0.950393 9.54167 0.996393 8.921 1.18839 8.313C1.38039 7.705 1.70939 7.16733 2.17539 6.7L5.70039 3.175C6.10039 2.79167 6.54639 2.5 7.03839 2.3C7.53039 2.1 8.03439 2 8.55039 2C9.06639 2 9.57073 2.1 10.0634 2.3C10.5561 2.5 10.9934 2.79167 11.3754 3.175L11.6504 3.45L11.9254 3.175C12.3254 2.79167 12.7714 2.5 13.2634 2.3C13.7554 2.1 14.2594 2 14.7754 2C15.2914 2 15.7957 2.1 16.2884 2.3C16.7811 2.5 17.2184 2.79167 17.6004 3.175L21.8254 7.4C22.2087 7.78333 22.5004 8.225 22.7004 8.725C22.9004 9.225 23.0004 9.73333 23.0004 10.25C23.0004 10.7667 22.9004 11.271 22.7004 11.763C22.5004 12.255 22.2087 12.6923 21.8254 13.075L13.6254 21.25C13.3921 21.4833 13.1214 21.6667 12.8134 21.8C12.5054 21.9333 12.1844 22 11.8504 22Z" fill="#E8A844"/>
</svg>
