<svg width="302" height="302" viewBox="0 0 302 302" fill="none" xmlns="http://www.w3.org/2000/svg">
<g clip-path="url(#clip0_391_2)">
<path d="M242.69 34.4317C216.832 21.5713 185.167 14 151 14C116.833 14 85.1813 21.5713 59.3103 34.4317C46.6277 40.7457 40.2863 43.9027 34.15 53.8247C28.0137 63.7467 28 73.3407 28 92.556V140.253C28 217.92 90.074 261.093 126.031 279.598C136.062 284.75 141.064 287.333 151 287.333C160.936 287.333 165.938 284.75 175.969 279.598C211.912 261.093 274 217.907 274 140.239V92.556C274 73.3407 274 63.7467 267.85 53.8247C261.7 43.9027 255.372 40.7457 242.69 34.4317Z" stroke="#303030" stroke-width="30" stroke-linecap="round" stroke-linejoin="round"/>
<path d="M123.662 136.998C123.662 136.998 136.071 147.276 144.162 171.165C144.162 171.165 164.662 130.165 198.829 109.665" stroke="#303030" stroke-width="30" stroke-linecap="round" stroke-linejoin="round"/>
</g>
<defs>
<clipPath id="clip0_391_2">
<rect width="302" height="302" fill="white"/>
</clipPath>
</defs>
</svg>
