<svg width="302" height="302" viewBox="0 0 302 302" fill="none" xmlns="http://www.w3.org/2000/svg">
<path d="M274.506 58.4021C273.377 57.1085 271.993 56.0629 270.439 55.3312C268.886 54.5995 267.198 54.1976 265.481 54.1509C238.824 53.454 205.093 24.9498 182.791 13.7642C169.016 6.87627 159.921 2.33466 153.091 1.13827C151.704 0.931857 150.295 0.935773 148.909 1.14989C142.079 2.34627 132.985 6.88789 119.22 13.7758C96.9189 24.9498 63.1878 53.454 36.5305 54.1509C34.8134 54.203 33.1253 54.6072 31.5708 55.3385C30.0163 56.0698 28.6286 57.1125 27.4937 58.4021C25.1446 61.0655 23.9313 64.5427 24.1136 68.0894C29.84 184.51 71.5973 256.561 144.867 298.434C146.772 299.514 148.886 300.072 150.988 300.072C153.091 300.072 155.205 299.514 157.121 298.434C230.391 256.561 272.137 184.51 277.875 68.0894C278.073 64.5425 276.862 61.0609 274.506 58.4021ZM216.244 104.19L154.415 195.429C152.196 198.704 148.712 200.876 145.262 200.876C141.812 200.876 137.956 198.983 135.528 196.556L91.9475 152.963C90.5246 151.535 89.7257 149.601 89.7257 147.585C89.7257 145.569 90.5246 143.635 91.9475 142.207L102.715 131.416C104.149 130.005 106.081 129.214 108.093 129.214C110.105 129.214 112.037 130.005 113.471 131.416L141.812 159.758L191.05 87.0805C192.189 85.4174 193.94 84.2726 195.921 83.8961C197.901 83.5196 199.95 83.942 201.62 85.071L214.223 93.62C215.888 94.7574 217.035 96.5075 217.413 98.4881C217.792 100.469 217.372 102.519 216.244 104.19Z" fill="#E8A844"/>
</svg>
