<svg width="303" height="303" viewBox="0 0 303 303" fill="none" xmlns="http://www.w3.org/2000/svg">
<path d="M62.2502 303H178.039C202.718 303 214.405 290.48 214.405 265.558V243.498H237.66C262.225 243.498 274.507 230.978 274.507 206.056V37.4421C274.507 12.5204 262.225 0 237.66 0H122.466C97.9014 0 85.5054 12.5204 85.5054 37.4421V59.5016H62.2502C37.6855 59.5016 25.2842 72.022 25.2842 96.9438V265.558C25.2842 290.599 37.6855 303 62.2502 303ZM150.97 42.0954C145.721 42.0954 143.341 38.6325 143.341 35.0614V32.5509C143.341 28.8553 145.721 25.5169 150.97 25.5169H209.162C214.286 25.5169 216.791 28.8553 216.791 32.5509V35.056C216.791 38.6379 214.286 42.0899 209.162 42.0899L150.97 42.0954ZM63.2079 283.803C50.9256 283.803 44.4868 277.126 44.4868 265.201V97.1764C44.4868 85.4893 50.9256 78.6988 63.3215 78.6988H104.703V147.859C104.703 162.884 112.332 170.275 127.119 170.275H195.208V265.195C195.208 277.121 188.769 283.797 176.368 283.797L63.2079 283.803ZM129.381 152.274C124.619 152.274 122.71 150.369 122.71 145.716V82.4052L191.512 152.279L129.381 152.274Z" fill="#E8A844"/>
</svg>
