<svg width="303" height="303" viewBox="0 0 303 303" fill="none" xmlns="http://www.w3.org/2000/svg">
<g clip-path="url(#clip0_389_914)">
<path d="M84.8418 142.79C88.1198 142.79 91.3558 143.506 94.3252 144.883L94.916 145.167L145.206 170.33H145.205C148.954 172.203 152.108 175.084 154.312 178.65C156.517 182.217 157.684 186.327 157.685 190.521V255.27C157.684 259.463 156.517 263.573 154.312 267.14C152.108 270.706 148.954 273.586 145.205 275.459L145.206 275.46L94.916 300.623C91.7876 302.186 88.3384 303 84.8418 303C81.3453 303 77.8968 302.186 74.7686 300.623H74.7676L24.4785 275.46C20.7295 273.587 17.5761 270.706 15.3721 267.14C13.168 263.573 12.0002 259.463 12 255.27V190.521L12.0137 189.735C12.1502 185.816 13.3057 181.994 15.3721 178.65C17.5761 175.084 20.7295 172.203 24.4785 170.33L74.7676 145.167H74.7686C77.8968 143.604 81.3453 142.79 84.8418 142.79ZM173.524 -1L174.263 -0.990234C181.881 -0.79942 189.147 2.3124 194.548 7.71875L278.287 91.5195L278.803 92.0488C284.057 97.5726 286.998 104.913 287 112.558V258.82C287 266.712 283.867 274.282 278.29 279.862C272.713 285.443 265.15 288.579 257.263 288.579H150.879L150.432 286.685L150.748 286.526L151.53 286.123C155.411 284.058 158.87 281.277 161.723 277.924C164.766 274.348 167.057 270.194 168.46 265.712L168.68 265.011H257.263C258.903 265.011 260.476 264.358 261.636 263.197C262.795 262.037 263.447 260.462 263.447 258.82V116.031H199.789C191.902 116.031 184.338 112.896 178.762 107.315C173.185 101.735 170.053 94.1654 170.053 86.2734V22.5684H84.8418C83.2021 22.5684 81.6295 23.2204 80.4697 24.3809C79.3099 25.5415 78.6582 27.116 78.6582 28.7578V130.966L77.8516 131.125C74.887 131.711 72.0123 132.702 69.2266 134.101H69.2256L56.5527 140.441L55.1055 141.166V28.7578C55.1055 20.8658 58.2378 13.2965 63.8145 7.71582C69.3911 2.13514 76.955 -0.999919 84.8418 -1H173.524ZM193.605 86.2734C193.605 87.9152 194.257 89.4897 195.417 90.6504C196.577 91.8109 198.149 92.4628 199.789 92.4629H245.941L193.605 40.0889V86.2734ZM78.6582 266.011C78.6583 267.652 79.31 269.226 80.4697 270.387C81.6295 271.547 83.202 272.2 84.8418 272.2C86.4817 272.2 88.055 271.547 89.2148 270.387C90.3744 269.226 91.0262 267.652 91.0264 266.011V219.523L91.5781 219.247L130.718 199.648L130.725 199.646C131.457 199.285 132.111 198.783 132.648 198.169C133.186 197.555 133.598 196.84 133.858 196.065C134.119 195.291 134.223 194.473 134.166 193.658C134.109 192.843 133.891 192.048 133.525 191.317C133.16 190.587 132.653 189.937 132.035 189.403C131.417 188.87 130.7 188.465 129.925 188.21C129.149 187.955 128.331 187.857 127.518 187.92C126.704 187.983 125.91 188.207 125.184 188.578L125.176 188.583L84.8418 208.75L44.5 188.579L44.9551 187.688L44.5 188.578C43.7734 188.207 42.9804 187.983 42.167 187.92C41.3534 187.857 40.5352 187.955 39.7598 188.21C38.9844 188.465 38.2665 188.87 37.6484 189.403C37.0305 189.937 36.5239 190.587 36.1582 191.317C35.7925 192.048 35.5746 192.843 35.5176 193.658C35.4606 194.473 35.5658 195.291 35.8262 196.065C36.0866 196.84 36.4975 197.555 37.0352 198.169C37.5057 198.707 38.0654 199.158 38.6885 199.504L38.96 199.646L38.9658 199.648L78.1055 219.247L78.6582 219.523V266.011Z" fill="#E8A844" stroke="#E8A844" stroke-width="2"/>
</g>
<defs>
<clipPath id="clip0_389_914">
<rect width="303" height="303" fill="white"/>
</clipPath>
</defs>
</svg>
