<svg width="297" height="297" viewBox="0 0 297 297" fill="none" xmlns="http://www.w3.org/2000/svg">
<path d="M250.721 208.755C255.589 203.947 263.419 203.947 268.288 208.755L268.98 209.439C273.935 214.333 273.935 222.333 268.98 227.227L209.124 286.345C204.255 291.153 196.425 291.153 191.557 286.345L163.451 258.586C158.496 253.692 158.496 245.693 163.451 240.799L164.144 240.115C169.012 235.307 176.842 235.307 181.711 240.115L195.069 253.309C197.991 256.194 202.689 256.194 205.61 253.309L250.721 208.755Z" fill="#303030" stroke="#303030" stroke-width="5"/>
<path d="M74.2503 71.7258C79.8273 71.7258 84.3483 66.9388 84.3483 61.0338C84.3483 55.1288 79.8273 50.3418 74.2503 50.3418C68.6734 50.3418 64.1523 55.1288 64.1523 61.0338C64.1523 66.9388 68.6734 71.7258 74.2503 71.7258Z" fill="#303030"/>
<path d="M74.2503 154.886C79.8273 154.886 84.3483 150.099 84.3483 144.194C84.3483 138.289 79.8273 133.502 74.2503 133.502C68.6734 133.502 64.1523 138.289 64.1523 144.194C64.1523 150.099 68.6734 154.886 74.2503 154.886Z" fill="#303030"/>
<path d="M74.2503 239.233C79.8273 239.233 84.3483 234.712 84.3483 229.135C84.3483 223.558 79.8273 219.037 74.2503 219.037C68.6734 219.037 64.1523 223.558 64.1523 229.135C64.1523 234.712 68.6734 239.233 74.2503 239.233Z" fill="#303030"/>
<path d="M210.632 6.07324C216.608 6.07324 222.339 8.45661 226.563 12.6973C230.787 16.9378 233.16 22.6882 233.16 28.6826V199.062H43.9111V259.392H128.021V283.501H42.4111C36.4346 283.501 30.7037 281.118 26.4795 276.877C22.2556 272.636 19.8838 266.886 19.8838 260.892V28.6826C19.8839 22.6882 22.2555 16.9378 26.4795 12.6973C30.7037 8.45651 36.4346 6.07331 42.4111 6.07324H210.632ZM43.9111 174.952H209.132V114.622H43.9111V174.952ZM43.9111 90.5127H209.132V30.1826H43.9111V90.5127Z" fill="#303030" stroke="#303030" stroke-width="3"/>
</svg>
