<svg width="297" height="297" viewBox="0 0 297 297" fill="none" xmlns="http://www.w3.org/2000/svg">
<path d="M203.9 105.256L186.342 87.6764C184.708 86.0411 182.803 85.2943 180.625 85.4361C178.447 85.5778 176.542 86.4608 174.908 88.0852C173.275 89.7096 172.458 91.6175 172.458 93.8088C172.458 96 173.275 97.9079 174.908 99.5323L192.467 117.112C195.733 120.382 199.544 122.018 203.9 122.018C208.256 122.018 212.067 120.382 215.333 117.112L255.758 76.2294C257.392 74.5941 258.208 72.6862 258.208 70.5058C258.208 68.3254 257.392 66.4176 255.758 64.7823C254.125 63.147 252.219 62.3294 250.042 62.3294C247.864 62.3294 245.958 63.147 244.325 64.7823L203.9 105.256ZM19.3334 288C14.7056 288 10.8292 286.43 7.70406 283.29C4.57895 280.15 3.01095 276.269 3.00006 271.647C2.98917 267.024 4.55717 263.143 7.70406 260.004C10.8509 256.864 14.7274 255.294 19.3334 255.294H182.667C187.294 255.294 191.176 256.864 194.312 260.004C197.448 263.143 199.011 267.024 199 271.647C198.989 276.269 197.421 280.156 194.296 283.306C191.171 286.457 187.294 288.022 182.667 288H19.3334ZM215.333 173.529C192.739 173.529 173.482 165.554 157.562 149.605C141.643 133.655 133.678 114.375 133.667 91.7646C133.656 69.154 141.621 49.8739 157.562 33.9243C173.504 17.9748 192.761 10 215.333 10C237.906 10 257.168 17.9748 273.121 33.9243C289.073 49.8739 297.033 69.154 297 91.7646C296.967 114.375 289.002 133.661 273.104 149.621C257.206 165.582 237.949 173.551 215.333 173.529ZM19.3334 157.176C14.7056 157.176 10.8292 155.606 7.70406 152.467C4.57895 149.327 3.01095 145.446 3.00006 140.823C2.98917 136.201 4.55717 132.32 7.70406 129.18C10.8509 126.04 14.7274 124.47 19.3334 124.47H95.6917C100.319 124.47 104.201 126.04 107.337 129.18C110.473 132.32 112.036 136.201 112.025 140.823C112.025 145.184 110.457 149 107.321 152.27C104.185 155.541 100.309 157.176 95.6917 157.176H19.3334ZM19.3334 222.588C14.7056 222.588 10.8292 221.018 7.70406 217.878C4.57895 214.739 3.01095 210.858 3.00006 206.235C2.98917 201.613 4.55717 197.732 7.70406 194.592C10.8509 191.452 14.7274 189.882 19.3334 189.882H148.775C153.403 189.882 157.285 191.452 160.421 194.592C163.557 197.732 165.119 201.613 165.108 206.235C165.108 210.596 163.611 214.412 160.617 217.682C157.622 220.953 153.675 222.588 148.775 222.588H19.3334Z" fill="#303030"/>
</svg>
