<svg width="372" height="372" viewBox="0 0 372 372" fill="none" xmlns="http://www.w3.org/2000/svg">
<path d="M237.15 136.787L220.488 120.125C218.938 118.575 217.129 117.867 215.063 118.001C212.996 118.136 211.188 118.973 209.638 120.513C208.088 122.052 207.313 123.86 207.313 125.938C207.313 128.015 208.088 129.823 209.638 131.363L226.3 148.025C229.4 151.125 233.017 152.675 237.15 152.675C241.283 152.675 244.9 151.125 248 148.025L286.363 109.275C287.913 107.725 288.688 105.917 288.688 103.85C288.688 101.783 287.913 99.975 286.363 98.425C284.813 96.875 283.004 96.1 280.938 96.1C278.871 96.1 277.063 96.875 275.513 98.425L237.15 136.787ZM62.0001 310C57.6084 310 53.9297 308.512 50.9641 305.536C47.9984 302.56 46.5104 298.881 46.5001 294.5C46.4897 290.119 47.9777 286.44 50.9641 283.464C53.9504 280.488 57.6291 279 62.0001 279H217C221.392 279 225.076 280.488 228.052 283.464C231.028 286.44 232.51 290.119 232.5 294.5C232.49 298.881 231.002 302.565 228.036 305.551C225.07 308.538 221.392 310.021 217 310H62.0001ZM248 201.5C226.558 201.5 208.284 193.941 193.177 178.823C178.069 163.706 170.51 145.431 170.5 124C170.49 102.569 178.049 84.2942 193.177 69.1765C208.305 54.0588 226.579 46.5 248 46.5C269.421 46.5 287.701 54.0588 302.839 69.1765C317.977 84.2942 325.531 102.569 325.5 124C325.469 145.431 317.91 163.711 302.824 178.839C287.737 193.967 269.462 201.521 248 201.5ZM62.0001 186C57.6084 186 53.9297 184.512 50.9641 181.536C47.9984 178.56 46.5104 174.881 46.5001 170.5C46.4897 166.119 47.9777 162.44 50.9641 159.464C53.9504 156.488 57.6291 155 62.0001 155H134.463C138.854 155 142.538 156.488 145.514 159.464C148.49 162.44 149.973 166.119 149.963 170.5C149.963 174.633 148.475 178.25 145.499 181.35C142.523 184.45 138.844 186 134.463 186H62.0001ZM62.0001 248C57.6084 248 53.9297 246.512 50.9641 243.536C47.9984 240.56 46.5104 236.881 46.5001 232.5C46.4897 228.119 47.9777 224.44 50.9641 221.464C53.9504 218.488 57.6291 217 62.0001 217H184.838C189.229 217 192.913 218.488 195.889 221.464C198.865 224.44 200.348 228.119 200.338 232.5C200.338 236.633 198.917 240.25 196.075 243.35C193.233 246.45 189.488 248 184.838 248H62.0001Z" fill="white"/>
</svg>
