<svg width="22" height="21" viewBox="0 0 22 21" fill="none" xmlns="http://www.w3.org/2000/svg">
<mask id="path-1-outside-1_353_17" maskUnits="userSpaceOnUse" x="-0.700195" y="-0.700195" width="23" height="21" fill="black">
<rect fill="white" x="-0.700195" y="-0.700195" width="23" height="21"/>
<path d="M10.7998 1.7998C10.5043 1.7998 10.2117 1.858 9.93877 1.97108C9.66578 2.08415 9.41775 2.24988 9.20881 2.45881C8.99988 2.66775 8.83415 2.91578 8.72108 3.18877C8.608 3.46175 8.5498 3.75433 8.5498 4.0498C8.5498 4.34528 8.608 4.63786 8.72108 4.91084C8.83415 5.18383 8.99988 5.43186 9.20881 5.6408C9.41775 5.84973 9.66578 6.01546 9.93877 6.12853C10.2117 6.24161 10.5043 6.2998 10.7998 6.2998C11.3965 6.2998 11.9688 6.06275 12.3908 5.6408C12.8128 5.21884 13.0498 4.64654 13.0498 4.0498C13.0498 3.45307 12.8128 2.88077 12.3908 2.45881C11.9688 2.03686 11.3965 1.7998 10.7998 1.7998ZM7.0498 4.0498C7.0498 3.05524 7.44489 2.10142 8.14815 1.39815C8.85142 0.694893 9.80524 0.299805 10.7998 0.299805C11.7944 0.299805 12.7482 0.694893 13.4515 1.39815C14.1547 2.10142 14.5498 3.05524 14.5498 4.0498C14.5498 5.04437 14.1547 5.99819 13.4515 6.70146C12.7482 7.40472 11.7944 7.7998 10.7998 7.7998C9.80524 7.7998 8.85142 7.40472 8.14815 6.70146C7.44489 5.99819 7.0498 5.04437 7.0498 4.0498ZM4.7998 11.5498C4.8008 11.2758 4.82881 11.0108 4.88381 10.7548L1.9678 11.5348C1.68234 11.6114 1.41477 11.7434 1.18036 11.9234C0.945948 12.1035 0.749299 12.3279 0.601646 12.5839C0.453992 12.8399 0.358226 13.1225 0.319819 13.4156C0.281412 13.7086 0.301116 14.0064 0.377805 14.2918L0.959805 16.4653C1.11628 17.0485 1.38853 17.5942 1.76033 18.07C2.13213 18.5458 2.59589 18.9419 3.12397 19.2347C3.65205 19.5275 4.23367 19.711 4.83416 19.7744C5.43466 19.8377 6.04176 19.7795 6.6193 19.6033C6.21813 19.2142 5.8733 18.7709 5.59481 18.2863C4.88818 18.3545 4.18027 18.1699 3.59692 17.7654C3.01357 17.3608 2.59258 16.7625 2.4088 16.0768L1.8253 13.9018C1.77401 13.7097 1.80114 13.505 1.90072 13.3329C2.0003 13.1607 2.16417 13.0351 2.3563 12.9838L4.7998 12.3298V11.5498ZM15.1288 19.6468L14.9788 19.6048C15.3793 19.2148 15.7258 18.7723 16.0048 18.2863C16.7114 18.3545 17.4193 18.1699 18.0027 17.7654C18.586 17.3608 19.007 16.7625 19.1908 16.0768L19.7728 13.9018C19.8241 13.7099 19.7972 13.5054 19.698 13.3333C19.5987 13.1612 19.4352 13.0355 19.2433 12.9838L16.7998 12.3298V11.5498C16.7988 11.2758 16.7708 11.0108 16.7158 10.7548L19.6303 11.5348C19.9159 11.6112 20.1836 11.7432 20.4182 11.9231C20.6528 12.103 20.8496 12.3274 20.9974 12.5835C21.1452 12.8395 21.2411 13.1222 21.2796 13.4153C21.3181 13.7084 21.2985 14.0063 21.2218 14.2918L20.6398 16.4653C20.3305 17.6177 19.5762 18.6 18.5427 19.1963C17.5093 19.7927 16.2813 19.9557 15.1288 19.6468ZM1.7998 6.2998C1.7998 5.90198 1.95784 5.52045 2.23914 5.23914C2.52045 4.95784 2.90198 4.7998 3.2998 4.7998C3.69763 4.7998 4.07916 4.95784 4.36046 5.23914C4.64177 5.52045 4.7998 5.90198 4.7998 6.2998C4.7998 6.69763 4.64177 7.07916 4.36046 7.36046C4.07916 7.64177 3.69763 7.7998 3.2998 7.7998C2.90198 7.7998 2.52045 7.64177 2.23914 7.36046C1.95784 7.07916 1.7998 6.69763 1.7998 6.2998ZM3.2998 3.2998C2.50416 3.2998 1.74109 3.61588 1.17848 4.17848C0.615875 4.74109 0.299805 5.50416 0.299805 6.2998C0.299805 7.09545 0.615875 7.85852 1.17848 8.42113C1.74109 8.98373 2.50416 9.2998 3.2998 9.2998C4.09545 9.2998 4.85852 8.98373 5.42113 8.42113C5.98373 7.85852 6.2998 7.09545 6.2998 6.2998C6.2998 5.50416 5.98373 4.74109 5.42113 4.17848C4.85852 3.61588 4.09545 3.2998 3.2998 3.2998ZM18.2998 4.7998C17.902 4.7998 17.5204 4.95784 17.2391 5.23914C16.9578 5.52045 16.7998 5.90198 16.7998 6.2998C16.7998 6.69763 16.9578 7.07916 17.2391 7.36046C17.5204 7.64177 17.902 7.7998 18.2998 7.7998C18.6976 7.7998 19.0792 7.64177 19.3605 7.36046C19.6418 7.07916 19.7998 6.69763 19.7998 6.2998C19.7998 5.90198 19.6418 5.52045 19.3605 5.23914C19.0792 4.95784 18.6976 4.7998 18.2998 4.7998ZM15.2998 6.2998C15.2998 5.50416 15.6159 4.74109 16.1785 4.17848C16.7411 3.61588 17.5042 3.2998 18.2998 3.2998C19.0955 3.2998 19.8585 3.61588 20.4211 4.17848C20.9837 4.74109 21.2998 5.50416 21.2998 6.2998C21.2998 7.09545 20.9837 7.85852 20.4211 8.42113C19.8585 8.98373 19.0955 9.2998 18.2998 9.2998C17.5042 9.2998 16.7411 8.98373 16.1785 8.42113C15.6159 7.85852 15.2998 7.09545 15.2998 6.2998ZM8.5498 9.2998C7.95307 9.2998 7.38077 9.53686 6.95881 9.95881C6.53686 10.3808 6.2998 10.9531 6.2998 11.5498V15.2998C6.2998 16.4933 6.77391 17.6379 7.61782 18.4818C8.46174 19.3257 9.60633 19.7998 10.7998 19.7998C11.9933 19.7998 13.1379 19.3257 13.9818 18.4818C14.8257 17.6379 15.2998 16.4933 15.2998 15.2998V11.5498C15.2998 10.9531 15.0628 10.3808 14.6408 9.95881C14.2188 9.53686 13.6465 9.2998 13.0498 9.2998H8.5498ZM7.7998 11.5498C7.7998 11.3509 7.87882 11.1601 8.01947 11.0195C8.16013 10.8788 8.35089 10.7998 8.5498 10.7998H13.0498C13.2487 10.7998 13.4395 10.8788 13.5801 11.0195C13.7208 11.1601 13.7998 11.3509 13.7998 11.5498V15.2998C13.7998 16.0955 13.4837 16.8585 12.9211 17.4211C12.3585 17.9837 11.5955 18.2998 10.7998 18.2998C10.0042 18.2998 9.24109 17.9837 8.67848 17.4211C8.11588 16.8585 7.7998 16.0955 7.7998 15.2998V11.5498Z"/>
</mask>
<path d="M10.7998 1.7998C10.5043 1.7998 10.2117 1.858 9.93877 1.97108C9.66578 2.08415 9.41775 2.24988 9.20881 2.45881C8.99988 2.66775 8.83415 2.91578 8.72108 3.18877C8.608 3.46175 8.5498 3.75433 8.5498 4.0498C8.5498 4.34528 8.608 4.63786 8.72108 4.91084C8.83415 5.18383 8.99988 5.43186 9.20881 5.6408C9.41775 5.84973 9.66578 6.01546 9.93877 6.12853C10.2117 6.24161 10.5043 6.2998 10.7998 6.2998C11.3965 6.2998 11.9688 6.06275 12.3908 5.6408C12.8128 5.21884 13.0498 4.64654 13.0498 4.0498C13.0498 3.45307 12.8128 2.88077 12.3908 2.45881C11.9688 2.03686 11.3965 1.7998 10.7998 1.7998ZM7.0498 4.0498C7.0498 3.05524 7.44489 2.10142 8.14815 1.39815C8.85142 0.694893 9.80524 0.299805 10.7998 0.299805C11.7944 0.299805 12.7482 0.694893 13.4515 1.39815C14.1547 2.10142 14.5498 3.05524 14.5498 4.0498C14.5498 5.04437 14.1547 5.99819 13.4515 6.70146C12.7482 7.40472 11.7944 7.7998 10.7998 7.7998C9.80524 7.7998 8.85142 7.40472 8.14815 6.70146C7.44489 5.99819 7.0498 5.04437 7.0498 4.0498ZM4.7998 11.5498C4.8008 11.2758 4.82881 11.0108 4.88381 10.7548L1.9678 11.5348C1.68234 11.6114 1.41477 11.7434 1.18036 11.9234C0.945948 12.1035 0.749299 12.3279 0.601646 12.5839C0.453992 12.8399 0.358226 13.1225 0.319819 13.4156C0.281412 13.7086 0.301116 14.0064 0.377805 14.2918L0.959805 16.4653C1.11628 17.0485 1.38853 17.5942 1.76033 18.07C2.13213 18.5458 2.59589 18.9419 3.12397 19.2347C3.65205 19.5275 4.23367 19.711 4.83416 19.7744C5.43466 19.8377 6.04176 19.7795 6.6193 19.6033C6.21813 19.2142 5.8733 18.7709 5.59481 18.2863C4.88818 18.3545 4.18027 18.1699 3.59692 17.7654C3.01357 17.3608 2.59258 16.7625 2.4088 16.0768L1.8253 13.9018C1.77401 13.7097 1.80114 13.505 1.90072 13.3329C2.0003 13.1607 2.16417 13.0351 2.3563 12.9838L4.7998 12.3298V11.5498ZM15.1288 19.6468L14.9788 19.6048C15.3793 19.2148 15.7258 18.7723 16.0048 18.2863C16.7114 18.3545 17.4193 18.1699 18.0027 17.7654C18.586 17.3608 19.007 16.7625 19.1908 16.0768L19.7728 13.9018C19.8241 13.7099 19.7972 13.5054 19.698 13.3333C19.5987 13.1612 19.4352 13.0355 19.2433 12.9838L16.7998 12.3298V11.5498C16.7988 11.2758 16.7708 11.0108 16.7158 10.7548L19.6303 11.5348C19.9159 11.6112 20.1836 11.7432 20.4182 11.9231C20.6528 12.103 20.8496 12.3274 20.9974 12.5835C21.1452 12.8395 21.2411 13.1222 21.2796 13.4153C21.3181 13.7084 21.2985 14.0063 21.2218 14.2918L20.6398 16.4653C20.3305 17.6177 19.5762 18.6 18.5427 19.1963C17.5093 19.7927 16.2813 19.9557 15.1288 19.6468ZM1.7998 6.2998C1.7998 5.90198 1.95784 5.52045 2.23914 5.23914C2.52045 4.95784 2.90198 4.7998 3.2998 4.7998C3.69763 4.7998 4.07916 4.95784 4.36046 5.23914C4.64177 5.52045 4.7998 5.90198 4.7998 6.2998C4.7998 6.69763 4.64177 7.07916 4.36046 7.36046C4.07916 7.64177 3.69763 7.7998 3.2998 7.7998C2.90198 7.7998 2.52045 7.64177 2.23914 7.36046C1.95784 7.07916 1.7998 6.69763 1.7998 6.2998ZM3.2998 3.2998C2.50416 3.2998 1.74109 3.61588 1.17848 4.17848C0.615875 4.74109 0.299805 5.50416 0.299805 6.2998C0.299805 7.09545 0.615875 7.85852 1.17848 8.42113C1.74109 8.98373 2.50416 9.2998 3.2998 9.2998C4.09545 9.2998 4.85852 8.98373 5.42113 8.42113C5.98373 7.85852 6.2998 7.09545 6.2998 6.2998C6.2998 5.50416 5.98373 4.74109 5.42113 4.17848C4.85852 3.61588 4.09545 3.2998 3.2998 3.2998ZM18.2998 4.7998C17.902 4.7998 17.5204 4.95784 17.2391 5.23914C16.9578 5.52045 16.7998 5.90198 16.7998 6.2998C16.7998 6.69763 16.9578 7.07916 17.2391 7.36046C17.5204 7.64177 17.902 7.7998 18.2998 7.7998C18.6976 7.7998 19.0792 7.64177 19.3605 7.36046C19.6418 7.07916 19.7998 6.69763 19.7998 6.2998C19.7998 5.90198 19.6418 5.52045 19.3605 5.23914C19.0792 4.95784 18.6976 4.7998 18.2998 4.7998ZM15.2998 6.2998C15.2998 5.50416 15.6159 4.74109 16.1785 4.17848C16.7411 3.61588 17.5042 3.2998 18.2998 3.2998C19.0955 3.2998 19.8585 3.61588 20.4211 4.17848C20.9837 4.74109 21.2998 5.50416 21.2998 6.2998C21.2998 7.09545 20.9837 7.85852 20.4211 8.42113C19.8585 8.98373 19.0955 9.2998 18.2998 9.2998C17.5042 9.2998 16.7411 8.98373 16.1785 8.42113C15.6159 7.85852 15.2998 7.09545 15.2998 6.2998ZM8.5498 9.2998C7.95307 9.2998 7.38077 9.53686 6.95881 9.95881C6.53686 10.3808 6.2998 10.9531 6.2998 11.5498V15.2998C6.2998 16.4933 6.77391 17.6379 7.61782 18.4818C8.46174 19.3257 9.60633 19.7998 10.7998 19.7998C11.9933 19.7998 13.1379 19.3257 13.9818 18.4818C14.8257 17.6379 15.2998 16.4933 15.2998 15.2998V11.5498C15.2998 10.9531 15.0628 10.3808 14.6408 9.95881C14.2188 9.53686 13.6465 9.2998 13.0498 9.2998H8.5498ZM7.7998 11.5498C7.7998 11.3509 7.87882 11.1601 8.01947 11.0195C8.16013 10.8788 8.35089 10.7998 8.5498 10.7998H13.0498C13.2487 10.7998 13.4395 10.8788 13.5801 11.0195C13.7208 11.1601 13.7998 11.3509 13.7998 11.5498V15.2998C13.7998 16.0955 13.4837 16.8585 12.9211 17.4211C12.3585 17.9837 11.5955 18.2998 10.7998 18.2998C10.0042 18.2998 9.24109 17.9837 8.67848 17.4211C8.11588 16.8585 7.7998 16.0955 7.7998 15.2998V11.5498Z" fill="#E8A844"/>
<path d="M10.7998 1.7998C10.5043 1.7998 10.2117 1.858 9.93877 1.97108C9.66578 2.08415 9.41775 2.24988 9.20881 2.45881C8.99988 2.66775 8.83415 2.91578 8.72108 3.18877C8.608 3.46175 8.5498 3.75433 8.5498 4.0498C8.5498 4.34528 8.608 4.63786 8.72108 4.91084C8.83415 5.18383 8.99988 5.43186 9.20881 5.6408C9.41775 5.84973 9.66578 6.01546 9.93877 6.12853C10.2117 6.24161 10.5043 6.2998 10.7998 6.2998C11.3965 6.2998 11.9688 6.06275 12.3908 5.6408C12.8128 5.21884 13.0498 4.64654 13.0498 4.0498C13.0498 3.45307 12.8128 2.88077 12.3908 2.45881C11.9688 2.03686 11.3965 1.7998 10.7998 1.7998ZM7.0498 4.0498C7.0498 3.05524 7.44489 2.10142 8.14815 1.39815C8.85142 0.694893 9.80524 0.299805 10.7998 0.299805C11.7944 0.299805 12.7482 0.694893 13.4515 1.39815C14.1547 2.10142 14.5498 3.05524 14.5498 4.0498C14.5498 5.04437 14.1547 5.99819 13.4515 6.70146C12.7482 7.40472 11.7944 7.7998 10.7998 7.7998C9.80524 7.7998 8.85142 7.40472 8.14815 6.70146C7.44489 5.99819 7.0498 5.04437 7.0498 4.0498ZM4.7998 11.5498C4.8008 11.2758 4.82881 11.0108 4.88381 10.7548L1.9678 11.5348C1.68234 11.6114 1.41477 11.7434 1.18036 11.9234C0.945948 12.1035 0.749299 12.3279 0.601646 12.5839C0.453992 12.8399 0.358226 13.1225 0.319819 13.4156C0.281412 13.7086 0.301116 14.0064 0.377805 14.2918L0.959805 16.4653C1.11628 17.0485 1.38853 17.5942 1.76033 18.07C2.13213 18.5458 2.59589 18.9419 3.12397 19.2347C3.65205 19.5275 4.23367 19.711 4.83416 19.7744C5.43466 19.8377 6.04176 19.7795 6.6193 19.6033C6.21813 19.2142 5.8733 18.7709 5.59481 18.2863C4.88818 18.3545 4.18027 18.1699 3.59692 17.7654C3.01357 17.3608 2.59258 16.7625 2.4088 16.0768L1.8253 13.9018C1.77401 13.7097 1.80114 13.505 1.90072 13.3329C2.0003 13.1607 2.16417 13.0351 2.3563 12.9838L4.7998 12.3298V11.5498ZM15.1288 19.6468L14.9788 19.6048C15.3793 19.2148 15.7258 18.7723 16.0048 18.2863C16.7114 18.3545 17.4193 18.1699 18.0027 17.7654C18.586 17.3608 19.007 16.7625 19.1908 16.0768L19.7728 13.9018C19.8241 13.7099 19.7972 13.5054 19.698 13.3333C19.5987 13.1612 19.4352 13.0355 19.2433 12.9838L16.7998 12.3298V11.5498C16.7988 11.2758 16.7708 11.0108 16.7158 10.7548L19.6303 11.5348C19.9159 11.6112 20.1836 11.7432 20.4182 11.9231C20.6528 12.103 20.8496 12.3274 20.9974 12.5835C21.1452 12.8395 21.2411 13.1222 21.2796 13.4153C21.3181 13.7084 21.2985 14.0063 21.2218 14.2918L20.6398 16.4653C20.3305 17.6177 19.5762 18.6 18.5427 19.1963C17.5093 19.7927 16.2813 19.9557 15.1288 19.6468ZM1.7998 6.2998C1.7998 5.90198 1.95784 5.52045 2.23914 5.23914C2.52045 4.95784 2.90198 4.7998 3.2998 4.7998C3.69763 4.7998 4.07916 4.95784 4.36046 5.23914C4.64177 5.52045 4.7998 5.90198 4.7998 6.2998C4.7998 6.69763 4.64177 7.07916 4.36046 7.36046C4.07916 7.64177 3.69763 7.7998 3.2998 7.7998C2.90198 7.7998 2.52045 7.64177 2.23914 7.36046C1.95784 7.07916 1.7998 6.69763 1.7998 6.2998ZM3.2998 3.2998C2.50416 3.2998 1.74109 3.61588 1.17848 4.17848C0.615875 4.74109 0.299805 5.50416 0.299805 6.2998C0.299805 7.09545 0.615875 7.85852 1.17848 8.42113C1.74109 8.98373 2.50416 9.2998 3.2998 9.2998C4.09545 9.2998 4.85852 8.98373 5.42113 8.42113C5.98373 7.85852 6.2998 7.09545 6.2998 6.2998C6.2998 5.50416 5.98373 4.74109 5.42113 4.17848C4.85852 3.61588 4.09545 3.2998 3.2998 3.2998ZM18.2998 4.7998C17.902 4.7998 17.5204 4.95784 17.2391 5.23914C16.9578 5.52045 16.7998 5.90198 16.7998 6.2998C16.7998 6.69763 16.9578 7.07916 17.2391 7.36046C17.5204 7.64177 17.902 7.7998 18.2998 7.7998C18.6976 7.7998 19.0792 7.64177 19.3605 7.36046C19.6418 7.07916 19.7998 6.69763 19.7998 6.2998C19.7998 5.90198 19.6418 5.52045 19.3605 5.23914C19.0792 4.95784 18.6976 4.7998 18.2998 4.7998ZM15.2998 6.2998C15.2998 5.50416 15.6159 4.74109 16.1785 4.17848C16.7411 3.61588 17.5042 3.2998 18.2998 3.2998C19.0955 3.2998 19.8585 3.61588 20.4211 4.17848C20.9837 4.74109 21.2998 5.50416 21.2998 6.2998C21.2998 7.09545 20.9837 7.85852 20.4211 8.42113C19.8585 8.98373 19.0955 9.2998 18.2998 9.2998C17.5042 9.2998 16.7411 8.98373 16.1785 8.42113C15.6159 7.85852 15.2998 7.09545 15.2998 6.2998ZM8.5498 9.2998C7.95307 9.2998 7.38077 9.53686 6.95881 9.95881C6.53686 10.3808 6.2998 10.9531 6.2998 11.5498V15.2998C6.2998 16.4933 6.77391 17.6379 7.61782 18.4818C8.46174 19.3257 9.60633 19.7998 10.7998 19.7998C11.9933 19.7998 13.1379 19.3257 13.9818 18.4818C14.8257 17.6379 15.2998 16.4933 15.2998 15.2998V11.5498C15.2998 10.9531 15.0628 10.3808 14.6408 9.95881C14.2188 9.53686 13.6465 9.2998 13.0498 9.2998H8.5498ZM7.7998 11.5498C7.7998 11.3509 7.87882 11.1601 8.01947 11.0195C8.16013 10.8788 8.35089 10.7998 8.5498 10.7998H13.0498C13.2487 10.7998 13.4395 10.8788 13.5801 11.0195C13.7208 11.1601 13.7998 11.3509 13.7998 11.5498V15.2998C13.7998 16.0955 13.4837 16.8585 12.9211 17.4211C12.3585 17.9837 11.5955 18.2998 10.7998 18.2998C10.0042 18.2998 9.24109 17.9837 8.67848 17.4211C8.11588 16.8585 7.7998 16.0955 7.7998 15.2998V11.5498Z" stroke="#E8A844" stroke-width="0.6" mask="url(#path-1-outside-1_353_17)"/>
</svg>
