<svg width="302" height="302" viewBox="0 0 302 302" fill="none" xmlns="http://www.w3.org/2000/svg">
<g clip-path="url(#clip0_223_2)">
<path fill-rule="evenodd" clip-rule="evenodd" d="M151.001 59.3213C155.292 59.3213 159.407 61.0258 162.441 64.0599C165.475 67.094 167.179 71.209 167.179 75.4999V152.618L213.256 180.272C215.1 181.355 216.711 182.792 217.996 184.5C219.281 186.209 220.215 188.155 220.743 190.227C221.272 192.299 221.384 194.455 221.074 196.57C220.764 198.686 220.038 200.719 218.938 202.552C217.837 204.385 216.384 205.982 214.663 207.25C212.942 208.518 210.986 209.433 208.909 209.941C206.832 210.448 204.675 210.54 202.563 210.209C200.451 209.878 198.425 209.132 196.603 208.013L142.674 175.656C140.279 174.218 138.298 172.185 136.922 169.755C135.546 167.324 134.822 164.579 134.822 161.786V75.4999C134.822 71.209 136.527 67.094 139.561 64.0599C142.595 61.0258 146.71 59.3213 151.001 59.3213Z" fill="#E8A844"/>
<path fill-rule="evenodd" clip-rule="evenodd" d="M32.357 151C32.3528 126.339 40.0334 102.289 54.3308 82.1957C68.6281 62.1021 88.8316 46.9631 112.132 38.884C135.432 30.8049 160.67 30.1872 184.338 37.1169C208.005 44.0465 228.925 58.179 244.188 77.5491L223.35 98.3656C221.839 99.8728 220.81 101.794 220.391 103.887C219.973 105.98 220.184 108.15 221 110.122C221.815 112.094 223.197 113.78 224.971 114.967C226.745 116.154 228.831 116.787 230.965 116.788H291.214C294.075 116.788 296.818 115.651 298.841 113.629C300.864 111.606 302 108.862 302 106.002V45.7313C302.004 43.5953 301.373 41.5062 300.188 39.729C299.003 37.9517 297.318 36.5663 295.344 35.7484C293.371 34.9304 291.199 34.7168 289.105 35.1346C287.01 35.5523 285.086 36.5827 283.578 38.095L267.184 54.5109C245.442 28.3372 215.497 10.2739 182.204 3.24923C148.911 -3.77542 114.222 0.650377 83.759 15.8091C53.2963 30.9679 28.8462 55.971 14.3726 86.7652C-0.101108 117.559 -3.74996 152.339 4.01753 185.467C11.785 218.594 30.5135 248.127 57.1669 269.278C83.8203 290.429 116.836 301.958 150.862 301.996C184.888 302.034 217.929 290.579 244.63 269.487C271.33 248.396 290.125 218.905 297.966 185.795C298.924 181.627 298.194 177.25 295.935 173.62C293.676 169.99 290.071 167.402 285.909 166.421C281.748 165.44 277.367 166.147 273.724 168.387C270.082 170.627 267.475 174.217 266.472 178.374C259.788 206.698 242.928 231.578 219.097 248.282C195.266 264.985 166.126 272.348 137.221 268.968C108.316 265.588 81.6613 251.702 62.3265 229.951C42.9917 208.2 32.3257 180.102 32.357 151Z" fill="#E8A844"/>
</g>
<defs>
<clipPath id="clip0_223_2">
<rect width="302" height="302" fill="white"/>
</clipPath>
</defs>
</svg>
