<svg width="420" height="277" viewBox="0 0 420 277" fill="none" xmlns="http://www.w3.org/2000/svg">
<path d="M170.777 250.916C169.673 250.916 168.777 250.021 168.777 248.916V107.439C168.777 106.636 169.257 105.912 169.996 105.598L250.385 71.4721C251.704 70.9122 253.166 71.8802 253.166 73.3131V91.4219C253.166 92.8365 254.595 93.804 255.908 93.2791L310.702 71.3869C312.016 70.862 313.444 71.8296 313.444 73.2441V104.416C313.444 105.521 314.339 106.416 315.444 106.416H409.888V248.916C409.888 250.021 408.993 250.916 407.888 250.916H170.777ZM192.888 224.833C192.888 225.938 193.784 226.833 194.888 226.833H383.777C384.882 226.833 385.777 225.938 385.777 224.833V132.5C385.777 131.395 384.882 130.5 383.777 130.5H291.333C290.228 130.5 289.333 129.604 289.333 128.5V108.767C289.333 107.352 287.904 106.385 286.591 106.91L231.797 128.802C230.484 129.327 229.055 128.359 229.055 126.945V109.485C229.055 108.04 227.57 107.072 226.248 107.655L194.081 121.845C193.356 122.165 192.888 122.883 192.888 123.675V224.833ZM277.277 200.75C277.277 201.854 278.173 202.75 279.277 202.75H299.388C300.493 202.75 301.388 201.854 301.388 200.75V156.583C301.388 155.478 300.493 154.583 299.388 154.583H279.277C278.173 154.583 277.277 155.478 277.277 156.583V200.75ZM229.055 200.75C229.055 201.854 229.951 202.75 231.055 202.75H251.166C252.271 202.75 253.166 201.854 253.166 200.75V156.583C253.166 155.478 252.271 154.583 251.166 154.583H231.055C229.951 154.583 229.055 155.478 229.055 156.583V200.75ZM325.5 200.75C325.5 201.854 326.395 202.75 327.5 202.75H347.611C348.715 202.75 349.611 201.854 349.611 200.75V156.583C349.611 155.478 348.715 154.583 347.611 154.583H327.5C326.395 154.583 325.5 155.478 325.5 156.583V200.75ZM409.888 106.416H351.877C350.673 106.416 349.743 105.362 349.892 104.168L361.447 11.8347C361.572 10.8339 362.423 10.083 363.432 10.083H396.068C397.076 10.083 397.927 10.8339 398.052 11.8347L409.888 106.416Z" fill="#E8A844"/>
<path d="M25.9612 251.485C20.5195 251.485 15.9212 249.583 12.1664 245.778C8.41158 241.973 6.53418 237.353 6.53418 231.917V192.782C6.53418 189.195 7.81299 186.124 10.3706 183.569C12.9282 181.014 16.0028 179.737 19.5944 179.737H51.2448C51.7971 179.737 52.2448 179.289 52.2448 178.737V148.124C52.2448 147.572 52.6925 147.124 53.2448 147.124H84.8953C90.337 147.124 94.9625 149.026 98.7717 152.831C102.581 156.636 104.486 161.256 104.486 166.692V191.782C104.486 192.334 104.933 192.782 105.486 192.782H109.852C110.405 192.782 110.852 192.334 110.852 191.782V185.118C110.852 183.379 111.206 181.694 111.914 180.063C112.621 178.432 113.573 177.019 114.77 175.823L126.382 164.376C126.86 163.905 127.656 164.028 127.969 164.622L155.79 217.406C156.141 218.072 155.658 218.872 154.906 218.872H123.913C120.321 218.872 117.246 217.595 114.689 215.04C112.372 212.726 111.104 209.988 110.886 206.826C110.848 206.275 110.405 205.827 109.852 205.827H105.322C104.77 205.827 104.322 206.275 104.322 206.827V216.779C104.322 217.072 104.452 217.35 104.672 217.545C106.677 219.329 108.221 221.43 109.302 223.846C110.444 226.4 111.016 229.091 111.016 231.917C111.016 237.353 109.111 241.973 105.302 245.778C101.493 249.583 96.8671 251.485 91.4254 251.485C87.2897 251.485 83.5349 250.289 80.161 247.898C76.9711 245.637 74.6082 242.695 73.0722 239.074C72.9112 238.694 72.5431 238.44 72.1308 238.44H45.2558C44.8435 238.44 44.4754 238.694 44.3144 239.074C42.7784 242.695 40.4155 245.637 37.2256 247.898C33.8517 250.289 30.0969 251.485 25.9612 251.485ZM25.9612 238.44C27.8114 238.44 29.3895 237.815 30.6955 236.565C32.0015 235.315 32.6546 233.766 32.6546 231.917C32.6546 230.069 32.0288 228.52 30.7772 227.27C29.5255 226.02 27.9747 225.395 26.1245 225.395C24.2743 225.395 22.7234 226.02 21.4718 227.27C20.2202 228.52 19.5944 230.069 19.5944 231.917C19.5944 233.766 20.193 235.315 21.3901 236.565C22.5873 237.815 24.111 238.44 25.9612 238.44ZM96.0781 236.565C97.3297 235.315 97.9555 233.766 97.9555 231.917C97.9555 230.069 97.3297 228.52 96.0781 227.27C94.8265 226.02 93.2756 225.395 91.4254 225.395C89.5752 225.395 88.0243 226.02 86.7727 227.27C85.5211 228.52 84.8953 230.069 84.8953 231.917C84.8953 233.766 85.5211 235.315 86.7727 236.565C88.0243 237.815 89.5752 238.44 91.4254 238.44C93.2756 238.44 94.8265 237.815 96.0781 236.565ZM52.2448 225.395V192.782H20.5944C20.0421 192.782 19.5944 193.23 19.5944 193.782V212.015C19.5944 212.722 20.3099 213.206 20.9877 213.004C21.5932 212.824 22.1899 212.687 22.7778 212.594C23.8117 212.431 24.9273 212.35 26.1245 212.35C30.2602 212.35 34.015 213.546 37.3889 215.937C40.5721 218.194 42.8834 221.127 44.3227 224.739C44.4787 225.13 44.8526 225.395 45.2738 225.395H52.2448ZM65.305 224.395C65.305 224.947 65.7527 225.395 66.305 225.395H72.1128C72.534 225.395 72.9079 225.13 73.0641 224.739C74.5064 221.127 76.8448 218.194 80.0794 215.937C83.2294 213.74 86.6782 212.552 90.4255 212.373C90.9772 212.347 91.4254 211.902 91.4254 211.35V206.827C91.4254 206.275 90.9777 205.827 90.4254 205.827H66.305C65.7527 205.827 65.305 206.275 65.305 206.827V224.395ZM65.305 191.782C65.305 192.334 65.7527 192.782 66.305 192.782H90.4254C90.9777 192.782 91.4254 192.334 91.4254 191.782V166.692C91.4254 164.844 90.7996 163.295 89.548 162.044C88.2964 160.794 86.7455 160.169 84.8953 160.169H66.305C65.7527 160.169 65.305 160.617 65.305 161.169V191.782ZM52.2448 225.395V212.35V213.491V192.782V225.395Z" fill="#E8A844"/>
</svg>
