<svg width="359" height="361" viewBox="0 0 359 361" fill="none" xmlns="http://www.w3.org/2000/svg">
<g clip-path="url(#clip0_388_896)">
<path d="M62.5 342H253.5" stroke="#E59A1B" stroke-width="25" stroke-linecap="round"/>
<path d="M78.375 220.366L264.711 262.313" stroke="#E59A1B" stroke-width="25" stroke-linecap="round"/>
<path d="M71.1992 252.438L256.635 293.102" stroke="#E59A1B" stroke-width="9" stroke-linecap="round"/>
<path d="M95.7964 226.771L76.5333 222.563C74.3333 222.083 72.1602 223.477 71.6797 225.677L59.7156 280.45C59.2351 282.65 60.629 284.823 62.829 285.303L82.0921 289.511C84.2921 289.991 86.4651 288.598 86.9457 286.398L98.9097 231.625C99.3903 229.425 97.9964 227.252 95.7964 226.771Z" fill="#E59A1B"/>
<path d="M230.355 256.163L211.092 251.955C208.892 251.475 206.719 252.868 206.238 255.068L194.274 309.841C193.794 312.041 195.188 314.214 197.388 314.695L216.651 318.903C218.851 319.383 221.024 317.989 221.504 315.789L233.468 261.016C233.949 258.816 232.555 256.643 230.355 256.163Z" fill="#E59A1B"/>
<path d="M129.199 234.068L109.936 229.86C107.736 229.38 105.563 230.774 105.082 232.974L93.118 287.747C92.6374 289.947 94.0313 292.12 96.2314 292.6L115.494 296.808C117.694 297.288 119.867 295.894 120.348 293.694L132.312 238.922C132.793 236.722 131.399 234.549 129.199 234.068Z" fill="#E59A1B"/>
<path d="M263.757 263.459L244.494 259.251C242.294 258.77 240.121 260.164 239.641 262.364L227.677 317.137C227.196 319.337 228.59 321.51 230.79 321.991L250.053 326.198C252.253 326.679 254.426 325.285 254.907 323.085L266.871 268.312C267.351 266.112 265.957 263.939 263.757 263.459Z" fill="#E59A1B"/>
<path d="M182.865 278.657C184.806 269.772 179.177 260.997 170.292 259.056C161.408 257.115 152.632 262.744 150.691 271.629C148.75 280.514 154.38 289.29 163.264 291.23C172.149 293.171 180.925 287.542 182.865 278.657Z" fill="#E59A1B"/>
<mask id="mask0_388_896" style="mask-type:luminance" maskUnits="userSpaceOnUse" x="89" y="11" width="241" height="230">
<path d="M140.723 32.0641C146.768 15.4568 165.131 6.89401 181.738 12.9385L308.597 59.1113C325.204 65.1558 333.767 83.5188 327.722 100.126L277.103 239.201C276.725 240.239 275.578 240.774 274.54 240.396L91.2999 173.702C90.2619 173.324 89.7268 172.177 90.1045 171.139L140.723 32.0641Z" fill="white"/>
</mask>
<g mask="url(#mask0_388_896)">
<path d="M140.723 32.0641C146.768 15.4568 165.131 6.89401 181.738 12.9385L308.597 59.1113C325.204 65.1558 333.767 83.5188 327.722 100.126L277.103 239.201C276.725 240.239 275.578 240.774 274.54 240.396L91.2999 173.702C90.2619 173.324 89.7268 172.177 90.1045 171.139L140.723 32.0641Z" stroke="#E59A1B" stroke-width="60" stroke-linejoin="round"/>
</g>
</g>
<defs>
<clipPath id="clip0_388_896">
<rect width="359" height="361" fill="white"/>
</clipPath>
</defs>
</svg>
