<svg width="285" height="285" viewBox="0 0 285 285" fill="none" xmlns="http://www.w3.org/2000/svg">
<path d="M253.267 142.001C252.842 142.009 252.415 142.068 251.989 142.183C250.675 142.539 249.616 143.371 248.819 144.474C231.414 150.253 214.912 155.582 197.663 161.244C191.504 163.266 187.645 169.332 189.443 174.962C191.242 180.593 197.871 183.226 204.026 181.171L204.026 181.171C220.994 175.508 237.28 170.259 254.447 164.628C254.534 164.662 254.622 164.69 254.71 164.72C254.303 165.184 254.054 165.794 254.054 166.465C254.054 167.913 255.207 169.088 256.628 169.088C258.049 169.088 259.202 167.913 259.202 166.465C259.202 165.782 258.943 165.162 258.524 164.696C260.502 163.927 261.836 162.03 262.484 159.812C263.19 157.4 263.183 154.492 262.394 151.516C261.605 148.54 260.172 146.02 258.371 144.29C257.02 142.993 255.384 142.111 253.691 142.009C253.55 142.001 253.409 141.998 253.267 142.001V142.001ZM253.344 144.954C253.415 144.953 253.486 144.955 253.558 144.96C254.421 145.016 255.39 145.488 256.383 146.441C257.707 147.712 258.933 149.786 259.596 152.287C260.158 154.405 260.216 156.46 259.908 158.112H251.722C251.177 157.131 250.712 156.002 250.385 154.768C249.722 152.267 249.758 149.853 250.274 148.087C250.79 146.321 251.689 145.321 252.733 145.039C252.932 144.985 253.138 144.956 253.344 144.954L253.344 144.954ZM247.387 147.648C246.795 149.977 246.841 152.727 247.587 155.539C247.819 156.417 248.116 157.277 248.475 158.109H225.023C215.035 161.388 205.505 164.512 199.69 166.422C196.086 167.606 194.208 170.755 194.975 173.155C195.742 175.556 199.097 177.001 202.69 175.803C213.064 172.342 233.553 165.624 249.653 160.343C250.236 161.261 250.893 162.076 251.61 162.765C251.621 162.774 251.631 162.784 251.641 162.793C235.377 168.129 214.164 175.082 203.592 178.608C198.811 180.203 193.6 178.398 192.217 174.069C190.834 169.74 194.017 165.182 198.799 163.611C209.353 160.145 231.087 153.021 247.387 147.648ZM256.627 176.133C253.998 186.132 250.345 184.744 250.345 190.597C250.345 194.131 253.159 197 256.627 197C260.094 197 262.909 194.131 262.909 190.597C262.909 184.279 259.302 186.31 256.627 176.133Z" fill="#303030"/>
<path d="M143 193.895C76.7 193.895 23 220.179 23 252.632V282H263V252.632C263 220.179 209.3 193.895 143 193.895ZM83 105.789C83 121.367 89.3214 136.307 100.574 147.323C111.826 158.338 127.087 164.526 143 164.526C158.913 164.526 174.174 158.338 185.426 147.323C196.679 136.307 203 121.367 203 105.789M135.5 3C131 3 128 6.08368 128 10.3421V54.3947H113V17.6842C113 17.6842 79.25 30.3126 79.25 72.75C79.25 72.75 68 74.8058 68 91.1053H218C217.25 74.8058 206.75 72.75 206.75 72.75C206.75 30.3126 173 17.6842 173 17.6842V54.3947H158V10.3421C158 6.08368 155.15 3 150.5 3H135.5Z" fill="#303030"/>
</svg>
