<?xml version="1.0" encoding="UTF-8"?>
<svg id="Layer_1" xmlns="http://www.w3.org/2000/svg" version="1.1" viewBox="0 0 285 313.8">
  <!-- Generator: Adobe Illustrator 29.1.0, SVG Export Plug-In . SVG Version: 2.1.0 Build 142)  -->
  <defs>
    <style>
      .st0 {
        fill: #303030;
      }
    </style>
  </defs>
  <path class="st0" d="M183.32,199.04v-1.75c-12.6-2.2-26.18-3.4-40.32-3.4-66.3,0-120,26.28-120,58.74v29.37h126.71c-1.36-6.04-.67-12.43,2.14-18.2l31.48-64.75Z"/>
  <path class="st0" d="M186.09,104.27c-2.75-16.08-13.42-16.83-13.42-16.83-5.22-42.11-40.27-50.5-40.27-50.5l4.52,36.43-14.89,1.85-5.42-43.72c-.52-4.23-3.73-6.94-8.35-6.36l-14.89,1.85c-4.47.55-7.06,3.98-6.54,8.21l5.42,43.72-14.89,1.85-4.52-36.43s-31.94,16.68-26.72,58.8c0,0-10.91,3.42-8.91,19.6l148.86-18.45Z"/>
  <path class="st0" d="M76.47,174.5c12.52,9.55,28.43,13.81,44.22,11.85,15.79-1.96,30.18-9.98,39.99-22.29,9.81-12.32,14.25-27.92,12.33-43.38l-119.09,14.76c1.92,15.46,10.03,29.51,22.55,39.06Z"/>
  <path class="st0" d="M234.04,229.44c-17.01-9.18-27.79,10.15-41.52.04l-21.37,43.95c-.9,1.84-.78,3.98.31,5.72,1.09,1.74,2.96,2.77,5.01,2.77l73.7-.07c2.05,0,3.92-1.04,5.01-2.78,1.09-1.74,1.2-3.88.3-5.72l-21.44-43.92Z"/>
  <path class="st0" d="M266.61,267.93l-3.61-7.39-19.56-40.06-9.38-19.22-.04-45.46h.56c2.33,0,4.22-1.9,4.22-4.23,0-2.33-1.89-4.22-4.23-4.22l-42.73.04c-2.33,0-4.22,1.9-4.22,4.23,0,2.33,1.89,4.22,4.23,4.22h.56s.04,43.26.04,43.26v2.2s-32.43,66.73-32.43,66.73c-2.16,4.45-2.42,9.44-.83,13.98.45,1.29,1.04,2.54,1.78,3.73,3.37,5.38,9.17,8.59,15.52,8.58l73.7-.07c6.35,0,12.14-3.22,15.5-8.61,3.36-5.39,3.7-12.01.92-17.71ZM250.18,285.8l-73.7.07c-3.11,0-5.96-1.44-7.82-3.87-.19-.24-.37-.49-.54-.75-1.81-2.89-2-6.46-.51-9.53l33.29-68.48v-2.07s-.04-45.34-.04-45.34l24.72-.02.04,47.41,4.37,8.94,29.04,59.47c1.5,3.07,1.31,6.64-.49,9.54-.18.29-.39.56-.6.83-1.86,2.39-4.68,3.8-7.75,3.8Z"/>
</svg>