<svg width="290" height="290" viewBox="0 0 290 290" fill="none" xmlns="http://www.w3.org/2000/svg">
<g clip-path="url(#clip0_49_19)">
<path d="M145 181.25C91.5913 181.25 48.333 202.88 48.333 229.584V253.75H241.666V229.584C241.666 202.88 198.408 181.25 145 181.25ZM96.6663 108.75C96.6663 121.569 101.759 133.863 110.823 142.927C119.887 151.991 132.181 157.084 145 157.084C157.818 157.084 170.112 151.991 179.176 142.927C188.241 133.863 193.333 121.569 193.333 108.75M138.958 24.167C135.333 24.167 132.916 26.7045 132.916 30.2087V66.4587H120.833V36.2503C120.833 36.2503 93.6455 46.642 93.6455 81.5628C93.6455 81.5628 84.583 83.2545 84.583 96.667H205.416C204.812 83.2545 196.354 81.5628 196.354 81.5628C196.354 46.642 169.166 36.2503 169.166 36.2503V66.4587H157.083V30.2087C157.083 26.7045 154.787 24.167 151.041 24.167H138.958Z" fill="#303030"/>
<path d="M277.206 127.852C276.653 127.862 276.098 127.938 275.543 128.085C273.835 128.539 272.457 129.6 271.42 131.008C248.78 138.383 227.313 145.184 204.877 152.411C196.865 154.991 191.845 162.732 194.184 169.918C196.523 177.104 205.146 180.464 213.154 177.841L213.153 177.842C235.225 170.614 256.41 163.915 278.741 156.729C278.854 156.772 278.969 156.808 279.083 156.846C278.554 157.438 278.23 158.217 278.23 159.073C278.23 160.922 279.729 162.421 281.578 162.421C283.427 162.421 284.926 160.922 284.926 159.073C284.926 158.202 284.59 157.411 284.045 156.815C286.617 155.834 288.353 153.413 289.196 150.582C290.113 147.504 290.105 143.793 289.078 139.995C288.052 136.197 286.188 132.981 283.845 130.774C282.088 129.118 279.959 127.992 277.758 127.863C277.575 127.852 277.391 127.848 277.206 127.852V127.852ZM277.306 131.621C277.399 131.619 277.492 131.622 277.584 131.628C278.707 131.7 279.968 132.302 281.26 133.518C282.982 135.14 284.576 137.788 285.439 140.979C286.17 143.683 286.246 146.305 285.845 148.414H275.197C274.487 147.161 273.883 145.72 273.457 144.145C272.595 140.954 272.641 137.873 273.313 135.619C273.985 133.365 275.153 132.089 276.511 131.728C276.771 131.66 277.038 131.624 277.306 131.62L277.306 131.621ZM269.557 135.059C268.787 138.031 268.848 141.541 269.817 145.129C270.119 146.25 270.505 147.347 270.973 148.41H240.467C227.474 152.594 215.077 156.581 207.513 159.019C202.825 160.529 200.381 164.548 201.379 167.611C202.377 170.675 206.742 172.52 211.416 170.99C224.91 166.574 251.563 158.001 272.505 151.26C273.264 152.432 274.119 153.473 275.051 154.351C275.064 154.363 275.078 154.375 275.091 154.388C253.934 161.197 226.34 170.07 212.588 174.571C206.369 176.607 199.592 174.302 197.792 168.777C195.993 163.253 200.133 157.436 206.353 155.432C220.082 151.008 248.354 141.916 269.557 135.059ZM281.576 171.412C278.157 184.173 273.405 182.401 273.405 189.871C273.405 194.382 277.065 198.043 281.576 198.043C286.087 198.043 289.748 194.382 289.748 189.871C289.748 181.808 285.056 184.4 281.576 171.412Z" fill="#303030"/>
</g>
<defs>
<clipPath id="clip0_49_19">
<rect width="290" height="290" fill="white"/>
</clipPath>
</defs>
</svg>
