<?xml version="1.0" encoding="UTF-8"?>
<svg id="Layer_1" xmlns="http://www.w3.org/2000/svg" version="1.1" viewBox="0 0 285 313.8">
  <!-- Generator: Adobe Illustrator 29.1.0, SVG Export Plug-In . SVG Version: 2.1.0 Build 142)  -->
  <defs>
    <style>
      .st0 {
        fill: #303030;
      }
    </style>
  </defs>
  <path class="st0" d="M135.1,211.9c4.7,0,9.3.1,13.9.4l-21.2,43.6c-1.3,2.6-2.3,5.3-3,8.1H33.1v-11.4c0-16.6,39.7-40.7,102-40.7M135.1,193.9c-66.3,0-120,26.3-120,58.7v29.4h126.7c-1.4-6-.7-12.4,2.1-18.2l31.5-64.7h0v-1.8c-12.6-2.2-26.2-3.4-40.3-3.4h0Z"/>
  <path class="st0" d="M178.2,104.3c-2.8-16.1-13.4-16.8-13.4-16.8-5.2-42.1-40.3-50.5-40.3-50.5l4.5,36.4-14.9,1.8-5.4-43.7c-.5-4.2-3.7-6.9-8.3-6.4l-14.9,1.9c-4.5.5-7.1,4-6.5,8.2l5.4,43.7-14.9,1.8-4.5-36.4s-31.9,16.7-26.7,58.8c0,0-10.9,3.4-8.9,19.6l148.9-18.5h0Z"/>
  <path class="st0" d="M106.3,187.7c-14.2,0-27.9-4.6-39.3-13.3-13.6-10.4-22.3-25.4-24.4-42.2l17.9-2.2c1.5,12,7.7,22.7,17.4,30.1,9.6,7.4,22.2,10.7,34.4,9.2,12.2-1.5,23.5-7.8,31.1-17.3,7.6-9.6,11-21.5,9.5-33.4l17.9-2.2c2.1,16.8-2.6,33.5-13.3,46.9-10.6,13.3-25.9,21.8-43,24-2.8.3-5.5.5-8.2.5Z"/>
  <path class="st0" d="M230.9,234.5c-13.6-7.3-25.1,8.1-36.1,0l-17,35c-.7,1.5-.6,3.2.2,4.6s2.4,2.2,4,2.2h61.7c1.6,0,3.1-.9,4-2.3.9-1.4,1-3.1.2-4.6l-17.1-35h0Z"/>
  <path class="st0" d="M270.4,266.6l-32.2-66v-42.2c2.7-1,4.7-3.7,4.7-6.8s-3.2-7.2-7.2-7.2h-45.7c-4,0-7.2,3.3-7.2,7.3s2,5.8,4.8,6.8v42.2s-32.1,66.1-32.1,66.1c-2.5,5.1-2.8,10.9-1,16.3.5,1.5,1.2,3,2.1,4.3,3.9,6.3,10.7,10,18,10h76.7c7.4,0,14.1-3.8,18-10.1,3.9-6.3,4.3-14,1.1-20.6ZM174.6,282.9c-2.1,0-4.1-1-5.5-2.7-.1-.2-.3-.3-.4-.5-1.3-2-1.4-4.5-.4-6.6l33.6-69.1v-45.1s21.7,0,21.7,0v45.1s33.8,69,33.8,69c1,2.1.9,4.6-.3,6.6-.1.2-.3.4-.4.6-1.3,1.7-3.3,2.6-5.4,2.6h-76.7ZM251.3,285.8h0s0,0,0,0h0Z"/>
</svg>