<svg width="26" height="26" viewBox="0 0 26 26" fill="none" xmlns="http://www.w3.org/2000/svg">
<path d="M22.8583 8.44967C22.4467 7.90801 21.8075 7.58301 21.125 7.58301H18.4167V6.49967C18.4167 5.30801 17.4417 4.33301 16.25 4.33301H2.16667C0.975 4.33301 0 5.30801 0 6.49968V17.333C0 18.5247 0.975 19.4997 2.16667 19.4997C2.16667 21.2872 3.62917 22.7497 5.41667 22.7497C7.20417 22.7497 8.66667 21.2872 8.66667 19.4997L17.3333 19.4997C17.3333 21.2872 18.7958 22.7497 20.5833 22.7497C22.3708 22.7497 23.8333 21.2872 23.8333 19.4997C25.025 19.4997 26 18.5247 26 17.333V13.3572C26 12.8913 25.8483 12.4255 25.5667 12.0572L22.8583 8.44967ZM21.125 9.74967L23.7887 13H18.4167V9.74967H21.125ZM5.41667 20.583C5.22652 20.5828 5.03976 20.5327 4.87505 20.4377C4.71034 20.3426 4.57345 20.2061 4.47804 20.0416C4.38264 19.8771 4.33208 19.6905 4.3314 19.5003C4.33072 19.3102 4.37995 19.1232 4.47417 18.958C4.875 18.2755 5.9475 18.2755 6.34833 18.958C6.44583 19.1205 6.48917 19.3047 6.48917 19.4888C6.48917 20.0847 6.00167 20.5722 5.40583 20.5722L5.41667 20.583ZM7.8325 17.333C7.8325 17.333 7.77833 17.2788 7.74583 17.2572C7.68083 17.1922 7.61583 17.138 7.56167 17.0838C7.43167 16.9647 7.29083 16.8563 7.15 16.7697C6.92334 16.6245 6.67953 16.5081 6.42417 16.423C6.34833 16.4013 6.2725 16.3688 6.19667 16.3472C5.9475 16.2822 5.6875 16.2497 5.41667 16.2497C5.01042 16.2497 4.88583 16.293 4.63667 16.3472C4.56083 16.3688 4.485 16.4013 4.40917 16.423C4.23583 16.4772 4.07333 16.5422 3.92167 16.6288C3.84583 16.6722 3.75917 16.7155 3.68333 16.7697C3.5425 16.8672 3.40167 16.9647 3.27167 17.0838C3.20667 17.138 3.14167 17.1922 3.07667 17.2572C3.055 17.2897 3.0225 17.3005 2.99 17.333H2.15583V6.49968L16.2392 6.49967V17.333L7.82167 17.333H7.8325ZM20.5833 20.583C20.3932 20.5828 20.2064 20.5327 20.0417 20.4376C19.877 20.3426 19.7401 20.2061 19.6447 20.0416C19.5493 19.8771 19.4987 19.6905 19.4981 19.5003C19.4974 19.3102 19.5466 19.1232 19.6408 18.958C20.0417 18.2755 21.1142 18.2755 21.515 18.958C21.6125 19.1205 21.6558 19.3047 21.6558 19.4888C21.6558 20.0847 21.1683 20.5722 20.5725 20.5722L20.5833 20.583ZM23.8333 17.333H22.9992C22.9992 17.333 22.945 17.2788 22.9125 17.2572C22.8475 17.1922 22.7825 17.138 22.7283 17.0838C22.5983 16.9647 22.4575 16.8563 22.3167 16.7697C22.09 16.6245 21.8462 16.5081 21.5908 16.423C21.515 16.4013 21.4392 16.3688 21.3633 16.3472C21.1142 16.2822 20.8542 16.2497 20.5833 16.2497C20.1771 16.2497 20.0742 16.293 19.825 16.3472C19.76 16.358 19.695 16.3797 19.63 16.4013C19.435 16.4663 19.24 16.5422 19.0667 16.6397L18.9367 16.7047C18.7525 16.813 18.5792 16.9322 18.4167 17.0838L23.8333 18V17.333Z" fill="#E8A844"/>
<g clip-path="url(#clip0_353_8)">
<path d="M8.95305 7.42951L6.74124 8.41218C6.51374 8.51329 6.36523 8.74079 6.36523 8.99041V10.4755C6.36523 12.2291 7.57857 13.869 9.20898 14.2671C10.8394 13.869 12.0527 12.2291 12.0527 10.4755V8.99041C12.0527 8.74079 11.9042 8.51329 11.6767 8.41218L9.46492 7.42951C9.30378 7.35683 9.11419 7.35683 8.95305 7.42951ZM9.20898 10.7883H11.4208C11.2533 12.0901 10.3844 13.2497 9.20898 13.6131V10.7914H6.99718V8.99041L9.20898 8.00773V10.7883Z" fill="#E8A844"/>
</g>
<defs>
<clipPath id="clip0_353_8">
<rect width="7.58333" height="7.58333" fill="white" transform="translate(5.41699 7)"/>
</clipPath>
</defs>
</svg>
